<?xml version="1.0" encoding="utf-8"?>
<svg xmlns="http://www.w3.org/2000/svg" xmlns:xlink="http://www.w3.org/1999/xlink" width="640" height="700" viewBox="0 0 2560 2800">
<defs>
  <clipPath id="clip5600">
    <rect x="0" y="0" width="2560" height="2800"/>
  </clipPath>
</defs>
<path clip-path="url(#clip5600)" d="
M0 2800 L2560 2800 L2560 0 L0 0  Z
  " fill="#ffffff" fill-rule="evenodd" fill-opacity="1"/>
<defs>
  <clipPath id="clip5601">
    <rect x="560" y="280" width="1961" height="1961"/>
  </clipPath>
</defs>
<path clip-path="url(#clip5600)" d="
M246.908 707.131 L2512.76 707.131 L2512.76 47.2441 L246.908 47.2441  Z
  " fill="#ffffff" fill-rule="evenodd" fill-opacity="1"/>
<defs>
  <clipPath id="clip5602">
    <rect x="246" y="47" width="2267" height="661"/>
  </clipPath>
</defs>
<polyline clip-path="url(#clip5602)" style="stroke:#000000; stroke-width:2; stroke-opacity:0.1; fill:none" points="
  311.035,707.131 311.035,47.2441 
  "/>
<polyline clip-path="url(#clip5602)" style="stroke:#000000; stroke-width:2; stroke-opacity:0.1; fill:none" points="
  738.554,707.131 738.554,47.2441 
  "/>
<polyline clip-path="url(#clip5602)" style="stroke:#000000; stroke-width:2; stroke-opacity:0.1; fill:none" points="
  1166.07,707.131 1166.07,47.2441 
  "/>
<polyline clip-path="url(#clip5602)" style="stroke:#000000; stroke-width:2; stroke-opacity:0.1; fill:none" points="
  1593.59,707.131 1593.59,47.2441 
  "/>
<polyline clip-path="url(#clip5602)" style="stroke:#000000; stroke-width:2; stroke-opacity:0.1; fill:none" points="
  2021.11,707.131 2021.11,47.2441 
  "/>
<polyline clip-path="url(#clip5602)" style="stroke:#000000; stroke-width:2; stroke-opacity:0.1; fill:none" points="
  2448.63,707.131 2448.63,47.2441 
  "/>
<polyline clip-path="url(#clip5602)" style="stroke:#000000; stroke-width:2; stroke-opacity:0.1; fill:none" points="
  246.908,688.455 2512.76,688.455 
  "/>
<polyline clip-path="url(#clip5602)" style="stroke:#000000; stroke-width:2; stroke-opacity:0.1; fill:none" points="
  246.908,588.85 2512.76,588.85 
  "/>
<polyline clip-path="url(#clip5602)" style="stroke:#000000; stroke-width:2; stroke-opacity:0.1; fill:none" points="
  246.908,489.244 2512.76,489.244 
  "/>
<polyline clip-path="url(#clip5602)" style="stroke:#000000; stroke-width:2; stroke-opacity:0.1; fill:none" points="
  246.908,389.638 2512.76,389.638 
  "/>
<polyline clip-path="url(#clip5602)" style="stroke:#000000; stroke-width:2; stroke-opacity:0.1; fill:none" points="
  246.908,290.033 2512.76,290.033 
  "/>
<polyline clip-path="url(#clip5602)" style="stroke:#000000; stroke-width:2; stroke-opacity:0.1; fill:none" points="
  246.908,190.427 2512.76,190.427 
  "/>
<polyline clip-path="url(#clip5602)" style="stroke:#000000; stroke-width:2; stroke-opacity:0.1; fill:none" points="
  246.908,90.8216 2512.76,90.8216 
  "/>
<polyline clip-path="url(#clip5600)" style="stroke:#000000; stroke-width:4; stroke-opacity:1; fill:none" points="
  246.908,707.131 2512.76,707.131 
  "/>
<polyline clip-path="url(#clip5600)" style="stroke:#000000; stroke-width:4; stroke-opacity:1; fill:none" points="
  246.908,707.131 246.908,47.2441 
  "/>
<polyline clip-path="url(#clip5600)" style="stroke:#000000; stroke-width:4; stroke-opacity:1; fill:none" points="
  311.035,707.131 311.035,699.213 
  "/>
<polyline clip-path="url(#clip5600)" style="stroke:#000000; stroke-width:4; stroke-opacity:1; fill:none" points="
  738.554,707.131 738.554,699.213 
  "/>
<polyline clip-path="url(#clip5600)" style="stroke:#000000; stroke-width:4; stroke-opacity:1; fill:none" points="
  1166.07,707.131 1166.07,699.213 
  "/>
<polyline clip-path="url(#clip5600)" style="stroke:#000000; stroke-width:4; stroke-opacity:1; fill:none" points="
  1593.59,707.131 1593.59,699.213 
  "/>
<polyline clip-path="url(#clip5600)" style="stroke:#000000; stroke-width:4; stroke-opacity:1; fill:none" points="
  2021.11,707.131 2021.11,699.213 
  "/>
<polyline clip-path="url(#clip5600)" style="stroke:#000000; stroke-width:4; stroke-opacity:1; fill:none" points="
  2448.63,707.131 2448.63,699.213 
  "/>
<polyline clip-path="url(#clip5600)" style="stroke:#000000; stroke-width:4; stroke-opacity:1; fill:none" points="
  246.908,688.455 274.098,688.455 
  "/>
<polyline clip-path="url(#clip5600)" style="stroke:#000000; stroke-width:4; stroke-opacity:1; fill:none" points="
  246.908,588.85 274.098,588.85 
  "/>
<polyline clip-path="url(#clip5600)" style="stroke:#000000; stroke-width:4; stroke-opacity:1; fill:none" points="
  246.908,489.244 274.098,489.244 
  "/>
<polyline clip-path="url(#clip5600)" style="stroke:#000000; stroke-width:4; stroke-opacity:1; fill:none" points="
  246.908,389.638 274.098,389.638 
  "/>
<polyline clip-path="url(#clip5600)" style="stroke:#000000; stroke-width:4; stroke-opacity:1; fill:none" points="
  246.908,290.033 274.098,290.033 
  "/>
<polyline clip-path="url(#clip5600)" style="stroke:#000000; stroke-width:4; stroke-opacity:1; fill:none" points="
  246.908,190.427 274.098,190.427 
  "/>
<polyline clip-path="url(#clip5600)" style="stroke:#000000; stroke-width:4; stroke-opacity:1; fill:none" points="
  246.908,90.8216 274.098,90.8216 
  "/>
<g clip-path="url(#clip5600)">
<text style="fill:#000000; fill-opacity:1; font-family:Arial,Helvetica Neue,Helvetica,sans-serif; font-size:48px; text-anchor:middle;" transform="rotate(0, 311.035, 763.131)" x="311.035" y="763.131">0</text>
</g>
<g clip-path="url(#clip5600)">
<text style="fill:#000000; fill-opacity:1; font-family:Arial,Helvetica Neue,Helvetica,sans-serif; font-size:48px; text-anchor:middle;" transform="rotate(0, 738.554, 763.131)" x="738.554" y="763.131">100</text>
</g>
<g clip-path="url(#clip5600)">
<text style="fill:#000000; fill-opacity:1; font-family:Arial,Helvetica Neue,Helvetica,sans-serif; font-size:48px; text-anchor:middle;" transform="rotate(0, 1166.07, 763.131)" x="1166.07" y="763.131">200</text>
</g>
<g clip-path="url(#clip5600)">
<text style="fill:#000000; fill-opacity:1; font-family:Arial,Helvetica Neue,Helvetica,sans-serif; font-size:48px; text-anchor:middle;" transform="rotate(0, 1593.59, 763.131)" x="1593.59" y="763.131">300</text>
</g>
<g clip-path="url(#clip5600)">
<text style="fill:#000000; fill-opacity:1; font-family:Arial,Helvetica Neue,Helvetica,sans-serif; font-size:48px; text-anchor:middle;" transform="rotate(0, 2021.11, 763.131)" x="2021.11" y="763.131">400</text>
</g>
<g clip-path="url(#clip5600)">
<text style="fill:#000000; fill-opacity:1; font-family:Arial,Helvetica Neue,Helvetica,sans-serif; font-size:48px; text-anchor:middle;" transform="rotate(0, 2448.63, 763.131)" x="2448.63" y="763.131">500</text>
</g>
<g clip-path="url(#clip5600)">
<text style="fill:#000000; fill-opacity:1; font-family:Arial,Helvetica Neue,Helvetica,sans-serif; font-size:48px; text-anchor:end;" transform="rotate(0, 218.908, 705.955)" x="218.908" y="705.955">0</text>
</g>
<g clip-path="url(#clip5600)">
<text style="fill:#000000; fill-opacity:1; font-family:Arial,Helvetica Neue,Helvetica,sans-serif; font-size:48px; text-anchor:end;" transform="rotate(0, 218.908, 606.35)" x="218.908" y="606.35">100</text>
</g>
<g clip-path="url(#clip5600)">
<text style="fill:#000000; fill-opacity:1; font-family:Arial,Helvetica Neue,Helvetica,sans-serif; font-size:48px; text-anchor:end;" transform="rotate(0, 218.908, 506.744)" x="218.908" y="506.744">200</text>
</g>
<g clip-path="url(#clip5600)">
<text style="fill:#000000; fill-opacity:1; font-family:Arial,Helvetica Neue,Helvetica,sans-serif; font-size:48px; text-anchor:end;" transform="rotate(0, 218.908, 407.138)" x="218.908" y="407.138">300</text>
</g>
<g clip-path="url(#clip5600)">
<text style="fill:#000000; fill-opacity:1; font-family:Arial,Helvetica Neue,Helvetica,sans-serif; font-size:48px; text-anchor:end;" transform="rotate(0, 218.908, 307.533)" x="218.908" y="307.533">400</text>
</g>
<g clip-path="url(#clip5600)">
<text style="fill:#000000; fill-opacity:1; font-family:Arial,Helvetica Neue,Helvetica,sans-serif; font-size:48px; text-anchor:end;" transform="rotate(0, 218.908, 207.927)" x="218.908" y="207.927">500</text>
</g>
<g clip-path="url(#clip5600)">
<text style="fill:#000000; fill-opacity:1; font-family:Arial,Helvetica Neue,Helvetica,sans-serif; font-size:48px; text-anchor:end;" transform="rotate(0, 218.908, 108.322)" x="218.908" y="108.322">600</text>
</g>
<g clip-path="url(#clip5600)">
<text style="fill:#000000; fill-opacity:1; font-family:Arial,Helvetica Neue,Helvetica,sans-serif; font-size:66px; text-anchor:middle;" transform="rotate(0, 1379.83, 844.993)" x="1379.83" y="844.993">macrosteps</text>
</g>
<g clip-path="url(#clip5600)">
<text style="fill:#000000; fill-opacity:1; font-family:Arial,Helvetica Neue,Helvetica,sans-serif; font-size:66px; text-anchor:middle;" transform="rotate(-90, 99.0584, 377.188)" x="99.0584" y="377.188">number of indigo sites</text>
</g>
<polyline clip-path="url(#clip5602)" style="stroke:#4b0082; stroke-width:4; stroke-opacity:1; fill:none" points="
  315.311,65.9201 315.311,67.8605 319.586,67.8605 319.586,69.8307 323.861,69.8307 323.861,71.779 328.136,71.779 328.136,73.777 332.411,73.777 332.411,75.6486 
  336.686,75.6486 336.686,77.587 340.962,77.587 340.962,79.6219 345.237,79.6219 345.237,81.607 349.512,81.607 349.512,83.5523 353.787,83.5523 353.787,85.4877 
  358.062,85.4877 358.062,87.5605 362.338,87.5605 362.338,89.6064 366.613,89.6064 366.613,91.6632 370.888,91.6632 370.888,93.7071 375.163,93.7071 375.163,95.6265 
  379.438,95.6265 379.438,97.8198 383.713,97.8198 383.713,99.8966 387.989,99.8966 387.989,102.046 392.264,102.046 392.264,104.036 396.539,104.036 396.539,106.057 
  400.814,106.057 400.814,108.01 405.089,108.01 405.089,110.123 409.365,110.123 409.365,112.172 413.64,112.172 413.64,114.182 417.915,114.182 417.915,116.243 
  422.19,116.243 422.19,118.173 426.465,118.173 426.465,120.118 430.741,120.118 430.741,122.066 435.016,122.066 435.016,124.004 439.291,124.004 439.291,126.01 
  443.566,126.01 443.566,127.948 447.841,127.948 447.841,129.752 452.116,129.752 452.116,131.821 456.392,131.821 456.392,133.626 460.667,133.626 460.667,135.71 
  464.942,135.71 464.942,137.512 469.217,137.512 469.217,139.543 473.492,139.543 473.492,141.443 477.768,141.443 477.768,143.597 482.043,143.597 482.043,145.588 
  486.318,145.588 486.318,147.793 490.593,147.793 490.593,149.909 494.868,149.909 494.868,151.891 499.143,151.891 499.143,153.905 503.419,153.905 503.419,155.918 
  507.694,155.918 507.694,157.801 511.969,157.801 511.969,159.906 516.244,159.906 516.244,162.009 520.519,162.009 520.519,164.086 524.795,164.086 524.795,166.016 
  529.07,166.016 529.07,168.044 533.345,168.044 533.345,169.987 537.62,169.987 537.62,172.043 541.895,172.043 541.895,174.088 546.171,174.088 546.171,176.093 
  550.446,176.093 550.446,178.318 554.721,178.318 554.721,180.124 558.996,180.124 558.996,181.993 563.271,181.993 563.271,183.842 567.546,183.842 567.546,185.966 
  571.822,185.966 571.822,188.031 576.097,188.031 576.097,190.127 580.372,190.127 580.372,192.358 584.647,192.358 584.647,194.423 588.922,194.423 588.922,196.254 
  593.198,196.254 593.198,198.237 597.473,198.237 597.473,200.473 601.748,200.473 601.748,202.568 606.023,202.568 606.023,204.711 610.298,204.711 610.298,206.898 
  614.574,206.898 614.574,208.945 618.849,208.945 618.849,210.984 623.124,210.984 623.124,212.848 627.399,212.848 627.399,214.824 631.674,214.824 631.674,217.111 
  635.949,217.111 635.949,219.227 640.225,219.227 640.225,221.174 644.5,221.174 644.5,222.931 648.775,222.931 648.775,224.85 653.05,224.85 653.05,226.766 
  657.325,226.766 657.325,228.597 661.601,228.597 661.601,230.719 665.876,230.719 665.876,232.59 670.151,232.59 670.151,234.484 674.426,234.484 674.426,236.434 
  678.701,236.434 678.701,238.395 682.976,238.395 682.976,240.514 687.252,240.514 687.252,242.498 691.527,242.498 691.527,244.517 695.802,244.517 695.802,246.441 
  700.077,246.441 700.077,248.49 704.352,248.49 704.352,250.417 708.628,250.417 708.628,252.548 712.903,252.548 712.903,254.433 717.178,254.433 717.178,256.435 
  721.453,256.435 721.453,258.283 725.728,258.283 725.728,260.2 730.004,260.2 730.004,262.059 734.279,262.059 734.279,263.926 738.554,263.926 738.554,265.967 
  742.829,265.967 742.829,268.125 747.104,268.125 747.104,270.208 751.379,270.208 751.379,272.138 755.655,272.138 755.655,273.968 759.93,273.968 759.93,275.814 
  764.205,275.814 764.205,277.848 768.48,277.848 768.48,279.706 772.755,279.706 772.755,281.545 777.031,281.545 777.031,283.383 781.306,283.383 781.306,285.342 
  785.581,285.342 785.581,287.188 789.856,287.188 789.856,289.334 794.131,289.334 794.131,291.573 798.406,291.573 798.406,293.642 802.682,293.642 802.682,295.633 
  806.957,295.633 806.957,297.747 811.232,297.747 811.232,299.618 815.507,299.618 815.507,301.505 819.782,301.505 819.782,303.392 824.058,303.392 824.058,305.384 
  828.333,305.384 828.333,307.282 832.608,307.282 832.608,309.272 836.883,309.272 836.883,311.138 841.158,311.138 841.158,313.178 845.434,313.178 845.434,315.273 
  849.709,315.273 849.709,317.236 853.984,317.236 853.984,319.392 858.259,319.392 858.259,321.409 862.534,321.409 862.534,323.281 866.809,323.281 866.809,325.296 
  871.085,325.296 871.085,327.384 875.36,327.384 875.36,329.283 879.635,329.283 879.635,331.171 883.91,331.171 883.91,333.163 888.185,333.163 888.185,335.125 
  892.461,335.125 892.461,337.043 896.736,337.043 896.736,339.126 901.011,339.126 901.011,341.032 905.286,341.032 905.286,343.263 909.561,343.263 909.561,345.245 
  913.836,345.245 913.836,347.317 918.112,347.317 918.112,349.205 922.387,349.205 922.387,351.111 926.662,351.111 926.662,353.162 930.937,353.162 930.937,355.064 
  935.212,355.064 935.212,357.264 939.488,357.264 939.488,359.173 943.763,359.173 943.763,361.205 948.038,361.205 948.038,363.081 952.313,363.081 952.313,365.196 
  956.588,365.196 956.588,367.138 960.864,367.138 960.864,368.959 965.139,368.959 965.139,370.987 969.414,370.987 969.414,373.093 973.689,373.093 973.689,375.063 
  977.964,375.063 977.964,376.999 982.239,376.999 982.239,378.908 986.515,378.908 986.515,380.897 990.79,380.897 990.79,382.758 995.065,382.758 995.065,384.597 
  999.34,384.597 999.34,386.555 1003.62,386.555 1003.62,388.565 1007.89,388.565 1007.89,390.472 1012.17,390.472 1012.17,392.687 1016.44,392.687 1016.44,394.68 
  1020.72,394.68 1020.72,396.656 1024.99,396.656 1024.99,398.711 1029.27,398.711 1029.27,400.91 1033.54,400.91 1033.54,402.923 1037.82,402.923 1037.82,404.842 
  1042.09,404.842 1042.09,406.744 1046.37,406.744 1046.37,408.84 1050.64,408.84 1050.64,411.038 1054.92,411.038 1054.92,413.132 1059.19,413.132 1059.19,414.987 
  1063.47,414.987 1063.47,417.001 1067.74,417.001 1067.74,419.114 1072.02,419.114 1072.02,420.958 1076.29,420.958 1076.29,422.953 1080.57,422.953 1080.57,424.935 
  1084.84,424.935 1084.84,426.792 1089.12,426.792 1089.12,428.545 1093.39,428.545 1093.39,430.528 1097.67,430.528 1097.67,432.543 1101.94,432.543 1101.94,434.607 
  1106.22,434.607 1106.22,436.507 1110.5,436.507 1110.5,438.532 1114.77,438.532 1114.77,440.564 1119.05,440.564 1119.05,442.499 1123.32,442.499 1123.32,444.743 
  1127.6,444.743 1127.6,446.703 1131.87,446.703 1131.87,448.586 1136.15,448.586 1136.15,450.48 1140.42,450.48 1140.42,452.514 1144.7,452.514 1144.7,454.507 
  1148.97,454.507 1148.97,456.306 1153.25,456.306 1153.25,458.269 1157.52,458.269 1157.52,460.316 1161.8,460.316 1161.8,462.314 1166.07,462.314 1166.07,464.34 
  1170.35,464.34 1170.35,466.296 1174.62,466.296 1174.62,468.077 1178.9,468.077 1178.9,470.101 1183.17,470.101 1183.17,472.25 1187.45,472.25 1187.45,474.26 
  1191.72,474.26 1191.72,476.546 1196,476.546 1196,478.531 1200.27,478.531 1200.27,480.567 1204.55,480.567 1204.55,482.545 1208.82,482.545 1208.82,484.484 
  1213.1,484.484 1213.1,486.508 1217.37,486.508 1217.37,488.304 1221.65,488.304 1221.65,490.367 1225.93,490.367 1225.93,492.339 1230.2,492.339 1230.2,494.245 
  1234.48,494.245 1234.48,496.165 1238.75,496.165 1238.75,498.22 1243.03,498.22 1243.03,500.033 1247.3,500.033 1247.3,501.95 1251.58,501.95 1251.58,504.062 
  1255.85,504.062 1255.85,506.088 1260.13,506.088 1260.13,508.051 1264.4,508.051 1264.4,509.9 1268.68,509.9 1268.68,511.96 1272.95,511.96 1272.95,513.988 
  1277.23,513.988 1277.23,515.99 1281.5,515.99 1281.5,518.019 1285.78,518.019 1285.78,519.83 1290.05,519.83 1290.05,521.708 1294.33,521.708 1294.33,523.651 
  1298.6,523.651 1298.6,525.675 1302.88,525.675 1302.88,527.832 1307.15,527.832 1307.15,530.02 1311.43,530.02 1311.43,531.93 1315.7,531.93 1315.7,534.109 
  1319.98,534.109 1319.98,536.108 1324.25,536.108 1324.25,538.13 1328.53,538.13 1328.53,540.006 1332.8,540.006 1332.8,542.067 1337.08,542.067 1337.08,544.004 
  1341.36,544.004 1341.36,546.051 1345.63,546.051 1345.63,547.886 1349.91,547.886 1349.91,549.895 1354.18,549.895 1354.18,552.033 1358.46,552.033 1358.46,553.861 
  1362.73,553.861 1362.73,555.907 1367.01,555.907 1367.01,557.838 1371.28,557.838 1371.28,559.926 1375.56,559.926 1375.56,561.919 1379.83,561.919 1379.83,563.812 
  1384.11,563.812 1384.11,565.725 1388.38,565.725 1388.38,567.712 1392.66,567.712 1392.66,569.698 1396.93,569.698 1396.93,571.63 1401.21,571.63 1401.21,573.76 
  1405.48,573.76 1405.48,575.66 1409.76,575.66 1409.76,577.7 1414.03,577.7 1414.03,579.689 1418.31,579.689 1418.31,581.453 1422.58,581.453 1422.58,583.354 
  1426.86,583.354 1426.86,585.289 1431.13,585.289 1431.13,587.257 1435.41,587.257 1435.41,589.123 1439.68,589.123 1439.68,591.193 1443.96,591.193 1443.96,593.012 
  1448.23,593.012 1448.23,594.703 1452.51,594.703 1452.51,596.521 1456.79,596.521 1456.79,598.289 1461.06,598.289 1461.06,600.278 1465.34,600.278 1465.34,602.087 
  1469.61,602.087 1469.61,603.809 1473.89,603.809 1473.89,605.741 1478.16,605.741 1478.16,607.524 1482.44,607.524 1482.44,609.34 1486.71,609.34 1486.71,611.07 
  1490.99,611.07 1490.99,612.742 1495.26,612.742 1495.26,614.354 1499.54,614.354 1499.54,616.127 1503.81,616.127 1503.81,617.882 1508.09,617.882 1508.09,619.686 
  1512.36,619.686 1512.36,621.494 1516.64,621.494 1516.64,623.095 1520.91,623.095 1520.91,624.78 1525.19,624.78 1525.19,626.519 1529.46,626.519 1529.46,628.075 
  1533.74,628.075 1533.74,629.651 1538.01,629.651 1538.01,631.333 1542.29,631.333 1542.29,632.858 1546.56,632.858 1546.56,634.384 1550.84,634.384 1550.84,636.025 
  1555.11,636.025 1555.11,637.634 1559.39,637.634 1559.39,639.13 1563.66,639.13 1563.66,640.669 1567.94,640.669 1567.94,642.143 1572.22,642.143 1572.22,643.567 
  1576.49,643.567 1576.49,644.91 1580.77,644.91 1580.77,646.261 1585.04,646.261 1585.04,647.621 1589.32,647.621 1589.32,648.875 1593.59,648.875 1593.59,650.117 
  1597.87,650.117 1597.87,651.244 1602.14,651.244 1602.14,652.466 1606.42,652.466 1606.42,653.574 1610.69,653.574 1610.69,654.873 1614.97,654.873 1614.97,656.04 
  1619.24,656.04 1619.24,657.124 1623.52,657.124 1623.52,658.205 1627.79,658.205 1627.79,659.209 1632.07,659.209 1632.07,660.291 1636.34,660.291 1636.34,661.443 
  1640.62,661.443 1640.62,662.464 1644.89,662.464 1644.89,663.369 1649.17,663.369 1649.17,664.376 1653.44,664.376 1653.44,665.187 1657.72,665.187 1657.72,666.102 
  1661.99,666.102 1661.99,667.021 1666.27,667.021 1666.27,667.931 1670.54,667.931 1670.54,668.746 1674.82,668.746 1674.82,669.54 1679.09,669.54 1679.09,670.287 
  1683.37,670.287 1683.37,671.051 1687.65,671.051 1687.65,671.755 1691.92,671.755 1691.92,672.407 1696.2,672.407 1696.2,673.066 1700.47,673.066 1700.47,673.683 
  1704.75,673.683 1704.75,674.294 1709.02,674.294 1709.02,674.823 1713.3,674.823 1713.3,675.445 1717.57,675.445 1717.57,675.969 1721.85,675.969 1721.85,676.51 
  1726.12,676.51 1726.12,677.015 1730.4,677.015 1730.4,677.491 1734.67,677.491 1734.67,678.039 1738.95,678.039 1738.95,678.517 1743.22,678.517 1743.22,678.99 
  1747.5,678.99 1747.5,679.448 1751.77,679.448 1751.77,679.86 1756.05,679.86 1756.05,680.243 1760.32,680.243 1760.32,680.67 1764.6,680.67 1764.6,681.067 
  1768.87,681.067 1768.87,681.45 1773.15,681.45 1773.15,681.793 1777.42,681.793 1777.42,682.167 1781.7,682.167 1781.7,682.5 1785.97,682.5 1785.97,682.782 
  1790.25,682.782 1790.25,683.044 1794.52,683.044 1794.52,683.292 1798.8,683.292 1798.8,683.594 1803.08,683.594 1803.08,683.827 1807.35,683.827 1807.35,684.04 
  1811.63,684.04 1811.63,684.327 1815.9,684.327 1815.9,684.577 1820.18,684.577 1820.18,684.793 1824.45,684.793 1824.45,684.982 1828.73,684.982 1828.73,685.167 
  1833,685.167 1833,685.318 1837.28,685.318 1837.28,685.485 1841.55,685.485 1841.55,685.639 1845.83,685.639 1845.83,685.797 1850.1,685.797 1850.1,685.953 
  1854.38,685.953 1854.38,686.063 1858.65,686.063 1858.65,686.188 1862.93,686.188 1862.93,686.31 1867.2,686.31 1867.2,686.422 1871.48,686.422 1871.48,686.538 
  1875.75,686.538 1875.75,686.662 1880.03,686.662 1880.03,686.804 1884.3,686.804 1884.3,686.889 1888.58,686.889 1888.58,686.998 1892.85,686.998 1892.85,687.096 
  1897.13,687.096 1897.13,687.18 1901.4,687.18 1901.4,687.254 1905.68,687.254 1905.68,687.304 1909.95,687.304 1909.95,687.365 1914.23,687.365 1914.23,687.448 
  1918.51,687.448 1918.51,687.464 1922.78,687.464 1922.78,687.508 1927.06,687.508 1927.06,687.586 1931.33,687.586 1931.33,687.636 1935.61,687.636 1935.61,687.676 
  1939.88,687.676 1939.88,687.701 1944.16,687.701 1944.16,687.724 1948.43,687.724 1948.43,687.745 1952.71,687.745 1952.71,687.779 1956.98,687.779 1956.98,687.796 
  1961.26,687.796 1961.26,687.82 1965.53,687.82 1965.53,687.862 1969.81,687.862 1969.81,687.883 1974.08,687.883 1974.08,687.902 1978.36,687.902 1978.36,687.921 
  1982.63,687.921 1982.63,687.939 1986.91,687.939 1986.91,687.956 1991.18,687.956 1991.18,687.972 1995.46,687.972 1995.46,687.978 1999.73,687.978 1999.73,688.005 
  2004.01,688.005 2004.01,688.012 2008.28,688.012 2008.28,688.027 2012.56,688.027 2012.56,688.037 2016.83,688.037 2016.83,688.047 2021.11,688.047 2021.11,688.06 
  2025.38,688.06 2025.38,688.067 2029.66,688.067 2029.66,688.08 2033.94,688.08 2033.94,688.091 2038.21,688.091 2038.21,688.101 2042.49,688.101 2042.49,688.12 
  2046.76,688.12 2046.76,688.13 2051.04,688.13 2051.04,688.144 2055.31,688.144 2055.31,688.148 2059.59,688.148 2059.59,688.159 2063.86,688.159 2063.86,688.167 
  2068.14,688.167 2068.14,688.183 2072.41,688.183 2072.41,688.192 2076.69,688.192 2076.69,688.212 2080.96,688.212 2080.96,688.219 2085.24,688.219 2085.24,688.226 
  2089.51,688.226 2089.51,688.237 2093.79,688.237 2093.79,688.245 2098.06,688.245 2098.06,688.252 2102.34,688.252 2102.34,688.263 2106.61,688.263 2106.61,688.274 
  2110.89,688.274 2110.89,688.278 2115.16,688.278 2115.16,688.282 2119.44,688.282 2119.44,688.281 2123.71,688.281 2123.71,688.283 2127.99,688.283 2127.99,688.289 
  2132.26,688.289 2132.26,688.296 2136.54,688.296 2136.54,688.307 2140.81,688.307 2140.81,688.314 2145.09,688.314 2145.09,688.318 2149.37,688.318 2149.37,688.328 
  2153.64,688.328 2153.64,688.332 2157.92,688.332 2157.92,688.34 2162.19,688.34 2162.19,688.349 2166.47,688.349 2166.47,688.347 2170.74,688.347 2170.74,688.352 
  2175.02,688.352 2175.02,688.358 2179.29,688.358 2183.57,688.358 2183.57,688.361 2187.84,688.361 2187.84,688.362 2192.12,688.362 2192.12,688.366 
  2196.39,688.366 2196.39,688.376 2200.67,688.376 2200.67,688.382 2204.94,688.382 2204.94,688.384 2209.22,688.384 2209.22,688.386 2213.49,688.386 2213.49,688.389 
  2217.77,688.389 2217.77,688.392 2222.04,688.392 2222.04,688.393 2226.32,688.393 2226.32,688.394 2230.59,688.394 2230.59,688.397 2234.87,688.397 2234.87,688.401 
  2239.14,688.401 2239.14,688.401 2243.42,688.401 2243.42,688.402 2247.69,688.402 2247.69,688.403 2251.97,688.403 2251.97,688.406 2256.24,688.406 2256.24,688.407 
  2260.52,688.407 2260.52,688.405 2264.8,688.405 2264.8,688.409 2269.07,688.409 2269.07,688.411 2273.35,688.411 2273.35,688.413 2277.62,688.413 2277.62,688.419 
  2281.9,688.419 2281.9,688.423 2286.17,688.423 2286.17,688.419 2290.45,688.419 2290.45,688.423 2294.72,688.423 2294.72,688.426 2299,688.426 
  2303.27,688.426 2303.27,688.429 2307.55,688.429 2311.82,688.429 2316.1,688.429 2316.1,688.431 2320.37,688.431 2320.37,688.429 
  2324.65,688.429 2324.65,688.433 2328.92,688.433 2328.92,688.435 2333.2,688.435 2333.2,688.436 2337.47,688.436 2337.47,688.439 2341.75,688.439 2341.75,688.438 
  2346.02,688.438 2346.02,688.44 2350.3,688.44 2350.3,688.442 2354.57,688.442 2354.57,688.446 2358.85,688.446 2358.85,688.447 2363.12,688.447 2363.12,688.448 
  2367.4,688.448 2367.4,688.45 2371.67,688.45 2371.67,688.455 2375.95,688.455 2380.23,688.455 2384.5,688.455 
  2388.78,688.455 2393.05,688.455 2397.33,688.455 2401.6,688.455 2405.88,688.455 
  2410.15,688.455 2414.43,688.455 2418.7,688.455 2422.98,688.455 2427.25,688.455 
  2431.53,688.455 2435.8,688.455 2440.08,688.455 2444.35,688.455 2448.63,688.455 
  "/>
<path clip-path="url(#clip5600)" d="
M1948.88 239.702 L2448.27 239.702 L2448.27 118.742 L1948.88 118.742  Z
  " fill="#ffffff" fill-rule="evenodd" fill-opacity="1"/>
<polyline clip-path="url(#clip5600)" style="stroke:#000000; stroke-width:4; stroke-opacity:1; fill:none" points="
  1948.88,239.702 2448.27,239.702 2448.27,118.742 1948.88,118.742 1948.88,239.702 
  "/>
<polyline clip-path="url(#clip5600)" style="stroke:#4b0082; stroke-width:4; stroke-opacity:1; fill:none" points="
  1976.88,179.222 2144.88,179.222 
  "/>
<g clip-path="url(#clip5600)">
<text style="fill:#000000; fill-opacity:1; font-family:Arial,Helvetica Neue,Helvetica,sans-serif; font-size:48px; text-anchor:start;" transform="rotate(0, 2172.88, 196.722)" x="2172.88" y="196.722">Pond Size</text>
</g>
<path clip-path="url(#clip5600)" d="
M246.908 1640.46 L2512.76 1640.46 L2512.76 980.577 L246.908 980.577  Z
  " fill="#ffffff" fill-rule="evenodd" fill-opacity="1"/>
<defs>
  <clipPath id="clip5603">
    <rect x="246" y="980" width="2267" height="661"/>
  </clipPath>
</defs>
<polyline clip-path="url(#clip5603)" style="stroke:#000000; stroke-width:2; stroke-opacity:0.1; fill:none" points="
  311.035,1640.46 311.035,980.577 
  "/>
<polyline clip-path="url(#clip5603)" style="stroke:#000000; stroke-width:2; stroke-opacity:0.1; fill:none" points="
  738.554,1640.46 738.554,980.577 
  "/>
<polyline clip-path="url(#clip5603)" style="stroke:#000000; stroke-width:2; stroke-opacity:0.1; fill:none" points="
  1166.07,1640.46 1166.07,980.577 
  "/>
<polyline clip-path="url(#clip5603)" style="stroke:#000000; stroke-width:2; stroke-opacity:0.1; fill:none" points="
  1593.59,1640.46 1593.59,980.577 
  "/>
<polyline clip-path="url(#clip5603)" style="stroke:#000000; stroke-width:2; stroke-opacity:0.1; fill:none" points="
  2021.11,1640.46 2021.11,980.577 
  "/>
<polyline clip-path="url(#clip5603)" style="stroke:#000000; stroke-width:2; stroke-opacity:0.1; fill:none" points="
  2448.63,1640.46 2448.63,980.577 
  "/>
<polyline clip-path="url(#clip5603)" style="stroke:#000000; stroke-width:2; stroke-opacity:0.1; fill:none" points="
  246.908,1621.79 2512.76,1621.79 
  "/>
<polyline clip-path="url(#clip5603)" style="stroke:#000000; stroke-width:2; stroke-opacity:0.1; fill:none" points="
  246.908,1497.28 2512.76,1497.28 
  "/>
<polyline clip-path="url(#clip5603)" style="stroke:#000000; stroke-width:2; stroke-opacity:0.1; fill:none" points="
  246.908,1372.77 2512.76,1372.77 
  "/>
<polyline clip-path="url(#clip5603)" style="stroke:#000000; stroke-width:2; stroke-opacity:0.1; fill:none" points="
  246.908,1248.27 2512.76,1248.27 
  "/>
<polyline clip-path="url(#clip5603)" style="stroke:#000000; stroke-width:2; stroke-opacity:0.1; fill:none" points="
  246.908,1123.76 2512.76,1123.76 
  "/>
<polyline clip-path="url(#clip5603)" style="stroke:#000000; stroke-width:2; stroke-opacity:0.1; fill:none" points="
  246.908,999.253 2512.76,999.253 
  "/>
<polyline clip-path="url(#clip5600)" style="stroke:#000000; stroke-width:4; stroke-opacity:1; fill:none" points="
  246.908,1640.46 2512.76,1640.46 
  "/>
<polyline clip-path="url(#clip5600)" style="stroke:#000000; stroke-width:4; stroke-opacity:1; fill:none" points="
  246.908,1640.46 246.908,980.577 
  "/>
<polyline clip-path="url(#clip5600)" style="stroke:#000000; stroke-width:4; stroke-opacity:1; fill:none" points="
  311.035,1640.46 311.035,1632.55 
  "/>
<polyline clip-path="url(#clip5600)" style="stroke:#000000; stroke-width:4; stroke-opacity:1; fill:none" points="
  738.554,1640.46 738.554,1632.55 
  "/>
<polyline clip-path="url(#clip5600)" style="stroke:#000000; stroke-width:4; stroke-opacity:1; fill:none" points="
  1166.07,1640.46 1166.07,1632.55 
  "/>
<polyline clip-path="url(#clip5600)" style="stroke:#000000; stroke-width:4; stroke-opacity:1; fill:none" points="
  1593.59,1640.46 1593.59,1632.55 
  "/>
<polyline clip-path="url(#clip5600)" style="stroke:#000000; stroke-width:4; stroke-opacity:1; fill:none" points="
  2021.11,1640.46 2021.11,1632.55 
  "/>
<polyline clip-path="url(#clip5600)" style="stroke:#000000; stroke-width:4; stroke-opacity:1; fill:none" points="
  2448.63,1640.46 2448.63,1632.55 
  "/>
<polyline clip-path="url(#clip5600)" style="stroke:#000000; stroke-width:4; stroke-opacity:1; fill:none" points="
  246.908,1621.79 274.098,1621.79 
  "/>
<polyline clip-path="url(#clip5600)" style="stroke:#000000; stroke-width:4; stroke-opacity:1; fill:none" points="
  246.908,1497.28 274.098,1497.28 
  "/>
<polyline clip-path="url(#clip5600)" style="stroke:#000000; stroke-width:4; stroke-opacity:1; fill:none" points="
  246.908,1372.77 274.098,1372.77 
  "/>
<polyline clip-path="url(#clip5600)" style="stroke:#000000; stroke-width:4; stroke-opacity:1; fill:none" points="
  246.908,1248.27 274.098,1248.27 
  "/>
<polyline clip-path="url(#clip5600)" style="stroke:#000000; stroke-width:4; stroke-opacity:1; fill:none" points="
  246.908,1123.76 274.098,1123.76 
  "/>
<polyline clip-path="url(#clip5600)" style="stroke:#000000; stroke-width:4; stroke-opacity:1; fill:none" points="
  246.908,999.253 274.098,999.253 
  "/>
<g clip-path="url(#clip5600)">
<text style="fill:#000000; fill-opacity:1; font-family:Arial,Helvetica Neue,Helvetica,sans-serif; font-size:48px; text-anchor:middle;" transform="rotate(0, 311.035, 1696.46)" x="311.035" y="1696.46">0</text>
</g>
<g clip-path="url(#clip5600)">
<text style="fill:#000000; fill-opacity:1; font-family:Arial,Helvetica Neue,Helvetica,sans-serif; font-size:48px; text-anchor:middle;" transform="rotate(0, 738.554, 1696.46)" x="738.554" y="1696.46">100</text>
</g>
<g clip-path="url(#clip5600)">
<text style="fill:#000000; fill-opacity:1; font-family:Arial,Helvetica Neue,Helvetica,sans-serif; font-size:48px; text-anchor:middle;" transform="rotate(0, 1166.07, 1696.46)" x="1166.07" y="1696.46">200</text>
</g>
<g clip-path="url(#clip5600)">
<text style="fill:#000000; fill-opacity:1; font-family:Arial,Helvetica Neue,Helvetica,sans-serif; font-size:48px; text-anchor:middle;" transform="rotate(0, 1593.59, 1696.46)" x="1593.59" y="1696.46">300</text>
</g>
<g clip-path="url(#clip5600)">
<text style="fill:#000000; fill-opacity:1; font-family:Arial,Helvetica Neue,Helvetica,sans-serif; font-size:48px; text-anchor:middle;" transform="rotate(0, 2021.11, 1696.46)" x="2021.11" y="1696.46">400</text>
</g>
<g clip-path="url(#clip5600)">
<text style="fill:#000000; fill-opacity:1; font-family:Arial,Helvetica Neue,Helvetica,sans-serif; font-size:48px; text-anchor:middle;" transform="rotate(0, 2448.63, 1696.46)" x="2448.63" y="1696.46">500</text>
</g>
<g clip-path="url(#clip5600)">
<text style="fill:#000000; fill-opacity:1; font-family:Arial,Helvetica Neue,Helvetica,sans-serif; font-size:48px; text-anchor:end;" transform="rotate(0, 218.908, 1639.29)" x="218.908" y="1639.29">0</text>
</g>
<g clip-path="url(#clip5600)">
<text style="fill:#000000; fill-opacity:1; font-family:Arial,Helvetica Neue,Helvetica,sans-serif; font-size:48px; text-anchor:end;" transform="rotate(0, 218.908, 1514.78)" x="218.908" y="1514.78">5</text>
</g>
<g clip-path="url(#clip5600)">
<text style="fill:#000000; fill-opacity:1; font-family:Arial,Helvetica Neue,Helvetica,sans-serif; font-size:48px; text-anchor:end;" transform="rotate(0, 218.908, 1390.27)" x="218.908" y="1390.27">10</text>
</g>
<g clip-path="url(#clip5600)">
<text style="fill:#000000; fill-opacity:1; font-family:Arial,Helvetica Neue,Helvetica,sans-serif; font-size:48px; text-anchor:end;" transform="rotate(0, 218.908, 1265.77)" x="218.908" y="1265.77">15</text>
</g>
<g clip-path="url(#clip5600)">
<text style="fill:#000000; fill-opacity:1; font-family:Arial,Helvetica Neue,Helvetica,sans-serif; font-size:48px; text-anchor:end;" transform="rotate(0, 218.908, 1141.26)" x="218.908" y="1141.26">20</text>
</g>
<g clip-path="url(#clip5600)">
<text style="fill:#000000; fill-opacity:1; font-family:Arial,Helvetica Neue,Helvetica,sans-serif; font-size:48px; text-anchor:end;" transform="rotate(0, 218.908, 1016.75)" x="218.908" y="1016.75">25</text>
</g>
<g clip-path="url(#clip5600)">
<text style="fill:#000000; fill-opacity:1; font-family:Arial,Helvetica Neue,Helvetica,sans-serif; font-size:66px; text-anchor:middle;" transform="rotate(0, 1379.83, 1778.33)" x="1379.83" y="1778.33">macrosteps</text>
</g>
<g clip-path="url(#clip5600)">
<text style="fill:#000000; fill-opacity:1; font-family:Arial,Helvetica Neue,Helvetica,sans-serif; font-size:66px; text-anchor:middle;" transform="rotate(-90, 125.821, 1310.52)" x="125.821" y="1310.52">number of neutral sites</text>
</g>
<polyline clip-path="url(#clip5603)" style="stroke:#ffa500; stroke-width:4; stroke-opacity:1; fill:none" points="
  315.311,1522.18 315.311,1488.27 319.586,1488.27 319.586,1466.01 323.861,1466.01 323.861,1449.02 328.136,1449.02 328.136,1433.26 332.411,1433.26 332.411,1420.96 
  336.686,1420.96 336.686,1410.53 340.962,1410.53 340.962,1397.92 345.237,1397.92 345.237,1388.29 349.512,1388.29 349.512,1379.57 353.787,1379.57 353.787,1370.76 
  358.062,1370.76 358.062,1361.67 362.338,1361.67 362.338,1352.65 366.613,1352.65 366.613,1343.47 370.888,1343.47 370.888,1336.29 375.163,1336.29 375.163,1329.47 
  379.438,1329.47 379.438,1321.03 383.713,1321.03 383.713,1312.56 387.989,1312.56 387.989,1304.25 392.264,1304.25 392.264,1298.54 396.539,1298.54 396.539,1293.71 
  400.814,1293.71 400.814,1288.33 405.089,1288.33 405.089,1282.18 409.365,1282.18 409.365,1275.31 413.64,1275.31 413.64,1270.01 417.915,1270.01 417.915,1264.4 
  422.19,1264.4 422.19,1258.03 426.465,1258.03 426.465,1253.75 430.741,1253.75 430.741,1249.29 435.016,1249.29 435.016,1244.23 439.291,1244.23 439.291,1238.56 
  443.566,1238.56 443.566,1234.92 447.841,1234.92 447.841,1231.23 452.116,1231.23 452.116,1224.71 456.392,1224.71 456.392,1221.35 460.667,1221.35 460.667,1217.29 
  464.942,1217.29 464.942,1213.93 469.217,1213.93 469.217,1209.55 473.492,1209.55 473.492,1205.44 477.768,1205.44 477.768,1201.6 482.043,1201.6 482.043,1199.59 
  486.318,1199.59 486.318,1195.6 490.593,1195.6 490.593,1192.64 494.868,1192.64 494.868,1188.68 499.143,1188.68 499.143,1185.29 503.419,1185.29 503.419,1182.75 
  507.694,1182.75 507.694,1178.89 511.969,1178.89 511.969,1177.17 516.244,1177.17 516.244,1175.9 520.519,1175.9 520.519,1174.16 524.795,1174.16 524.795,1172.89 
  529.07,1172.89 529.07,1171.12 533.345,1171.12 533.345,1170.92 537.62,1170.92 537.62,1167.19 541.895,1167.19 541.895,1164.92 546.171,1164.92 546.171,1162.71 
  550.446,1162.71 550.446,1161.49 554.721,1161.49 554.721,1159.77 558.996,1159.77 558.996,1158.65 563.271,1158.65 563.271,1156.51 567.546,1156.51 567.546,1153.37 
  571.822,1153.37 571.822,1153.54 576.097,1153.54 576.097,1152.45 580.372,1152.45 580.372,1151.55 584.647,1151.55 584.647,1149.43 588.922,1149.43 588.922,1149.31 
  593.198,1149.31 593.198,1147.77 597.473,1147.77 597.473,1147.04 601.748,1147.04 601.748,1147.49 606.023,1147.49 606.023,1147.94 610.298,1147.94 610.298,1147.77 
  614.574,1147.77 614.574,1147.17 618.849,1147.17 618.849,1145.72 623.124,1145.72 623.124,1144.78 627.399,1144.78 627.399,1144.95 631.674,1144.95 631.674,1144.2 
  635.949,1144.2 635.949,1143.11 640.225,1143.11 640.225,1142.36 644.5,1142.36 644.5,1141.34 648.775,1141.34 648.775,1139.92 653.05,1139.92 653.05,1140.07 
  657.325,1140.07 657.325,1142.14 661.601,1142.14 661.601,1141.29 665.876,1141.29 665.876,1143.61 670.151,1143.61 670.151,1142.11 674.426,1142.11 674.426,1141.29 
  678.701,1141.29 678.701,1141.66 682.976,1141.66 682.976,1141.14 687.252,1141.14 687.252,1140.79 691.527,1140.79 691.527,1142.09 695.802,1142.09 695.802,1143.91 
  700.077,1143.91 700.077,1140.32 704.352,1140.32 704.352,1141.02 708.628,1141.02 708.628,1139.75 712.903,1139.75 712.903,1141.27 717.178,1141.27 717.178,1141.37 
  721.453,1141.37 721.453,1141.24 725.728,1141.24 725.728,1142.88 730.004,1142.88 730.004,1141.07 734.279,1141.07 734.279,1141.89 738.554,1141.89 738.554,1141.74 
  742.829,1141.74 742.829,1143.03 747.104,1143.03 747.104,1144.03 751.379,1144.03 751.379,1145.62 755.655,1145.62 755.655,1144.95 759.93,1144.95 759.93,1146.3 
  764.205,1146.3 764.205,1144.8 768.48,1144.8 768.48,1148.39 772.755,1148.39 772.755,1148.99 777.031,1148.99 777.031,1149.18 781.306,1149.18 781.306,1152.1 
  785.581,1152.1 785.581,1152.67 789.856,1152.67 789.856,1154.61 794.131,1154.61 794.131,1153.04 798.406,1153.04 798.406,1153.84 802.682,1153.84 802.682,1153.99 
  806.957,1153.99 806.957,1153.09 811.232,1153.09 811.232,1154.84 815.507,1154.84 815.507,1156.13 819.782,1156.13 819.782,1158.45 824.058,1158.45 824.058,1159.87 
  828.333,1159.87 828.333,1157.13 832.608,1157.13 832.608,1159.67 836.883,1159.67 836.883,1159.82 841.158,1159.82 841.158,1160.29 845.434,1160.29 845.434,1156.98 
  849.709,1156.98 849.709,1160.81 853.984,1160.81 853.984,1161.06 858.259,1161.06 858.259,1162.56 862.534,1162.56 862.534,1164.55 866.809,1164.55 866.809,1164.82 
  871.085,1164.82 871.085,1163.98 875.36,1163.98 875.36,1165.05 879.635,1165.05 879.635,1168.28 883.91,1168.28 883.91,1165.99 888.185,1165.99 888.185,1168.86 
  892.461,1168.86 892.461,1169.23 896.736,1169.23 896.736,1168.28 901.011,1168.28 901.011,1171.17 905.286,1171.17 905.286,1172.79 909.561,1172.79 909.561,1171.99 
  913.836,1171.99 913.836,1174.93 918.112,1174.93 918.112,1173.96 922.387,1173.96 922.387,1176.15 926.662,1176.15 926.662,1175.53 930.937,1175.53 930.937,1178.42 
  935.212,1178.42 935.212,1178.37 939.488,1178.37 939.488,1180.31 943.763,1180.31 943.763,1180.29 948.038,1180.29 948.038,1182.4 952.313,1182.4 952.313,1185.52 
  956.588,1185.52 956.588,1185.47 960.864,1185.47 960.864,1184.22 965.139,1184.22 965.139,1187.01 969.414,1187.01 969.414,1185.99 973.689,1185.99 973.689,1188.53 
  977.964,1188.53 977.964,1186.99 982.239,1186.99 982.239,1191.12 986.515,1191.12 986.515,1192.02 990.79,1192.02 990.79,1193.88 995.065,1193.88 995.065,1194.43 
  999.34,1194.43 999.34,1192.84 1003.62,1192.84 1003.62,1196.37 1007.89,1196.37 1007.89,1197.37 1012.17,1197.37 1012.17,1197.97 1016.44,1197.97 1016.44,1196.45 
  1020.72,1196.45 1020.72,1199.56 1024.99,1199.56 1024.99,1197.64 1029.27,1197.64 1029.27,1199.66 1033.54,1199.66 1033.54,1202.27 1037.82,1202.27 1037.82,1201.53 
  1042.09,1201.53 1042.09,1202.8 1046.37,1202.8 1046.37,1204.71 1050.64,1204.71 1050.64,1205.64 1054.92,1205.64 1054.92,1205.09 1059.19,1205.09 1059.19,1206.21 
  1063.47,1206.21 1063.47,1206.96 1067.74,1206.96 1067.74,1208.57 1072.02,1208.57 1072.02,1211.34 1076.29,1211.34 1076.29,1212.01 1080.57,1212.01 1080.57,1213.63 
  1084.84,1213.63 1084.84,1215.75 1089.12,1215.75 1089.12,1219.66 1093.39,1219.66 1093.39,1219.23 1097.67,1219.23 1097.67,1221.1 1101.94,1221.1 1101.94,1220.88 
  1106.22,1220.88 1106.22,1225.83 1110.5,1225.83 1110.5,1227.23 1114.77,1227.23 1114.77,1227.05 1119.05,1227.05 1119.05,1228.74 1123.32,1228.74 1123.32,1227.45 
  1127.6,1227.45 1127.6,1229.32 1131.87,1229.32 1131.87,1232.06 1136.15,1232.06 1136.15,1233.6 1140.42,1233.6 1140.42,1232.28 1144.7,1232.28 1144.7,1234.62 
  1148.97,1234.62 1148.97,1239.3 1153.25,1239.3 1153.25,1241.74 1157.52,1241.74 1157.52,1240.07 1161.8,1240.07 1161.8,1243.69 1166.07,1243.69 1166.07,1244.63 
  1170.35,1244.63 1170.35,1247.84 1174.62,1247.84 1174.62,1250.09 1178.9,1250.09 1178.9,1249.34 1183.17,1249.34 1183.17,1250.83 1187.45,1250.83 1187.45,1252.97 
  1191.72,1252.97 1191.72,1254.44 1196,1254.44 1196,1254.29 1200.27,1254.29 1200.27,1256.29 1204.55,1256.29 1204.55,1257.85 1208.82,1257.85 1208.82,1259 
  1213.1,1259 1213.1,1262.04 1217.37,1262.04 1217.37,1263.28 1221.65,1263.28 1221.65,1261.81 1225.93,1261.81 1225.93,1264.58 1230.2,1264.58 1230.2,1266.59 
  1234.48,1266.59 1234.48,1268.71 1238.75,1268.71 1238.75,1270.85 1243.03,1270.85 1243.03,1270.38 1247.3,1270.38 1247.3,1273.02 1251.58,1273.02 1251.58,1274.34 
  1255.85,1274.34 1255.85,1276.23 1260.13,1276.23 1260.13,1277.93 1264.4,1277.93 1264.4,1279.24 1268.68,1279.24 1268.68,1281.46 1272.95,1281.46 1272.95,1284.55 
  1277.23,1284.55 1277.23,1284.9 1281.5,1284.9 1281.5,1286.81 1285.78,1286.81 1285.78,1290 1290.05,1290 1290.05,1292.29 1294.33,1292.29 1294.33,1293.91 
  1298.6,1293.91 1298.6,1295.7 1302.88,1295.7 1302.88,1296.55 1307.15,1296.55 1307.15,1297.72 1311.43,1297.72 1311.43,1298.74 1315.7,1298.74 1315.7,1301.33 
  1319.98,1301.33 1319.98,1301.68 1324.25,1301.68 1324.25,1303.03 1328.53,1303.03 1328.53,1307.03 1332.8,1307.03 1332.8,1307.91 1337.08,1307.91 1337.08,1308.28 
  1341.36,1308.28 1341.36,1311.92 1345.63,1311.92 1345.63,1313.31 1349.91,1313.31 1349.91,1314.56 1354.18,1314.56 1354.18,1315.65 1358.46,1315.65 1358.46,1317.92 
  1362.73,1317.92 1362.73,1321.55 1367.01,1321.55 1367.01,1323.3 1371.28,1323.3 1371.28,1323.67 1375.56,1323.67 1375.56,1324.71 1379.83,1324.71 1379.83,1326.58 
  1384.11,1326.58 1384.11,1329 1388.38,1329 1388.38,1333.28 1392.66,1333.28 1392.66,1337.69 1396.93,1337.69 1396.93,1340.8 1401.21,1340.8 1401.21,1342.82 
  1405.48,1342.82 1405.48,1344.59 1409.76,1344.59 1409.76,1346.28 1414.03,1346.28 1414.03,1347.65 1418.31,1347.65 1418.31,1352.5 1422.58,1352.5 1422.58,1355.74 
  1426.86,1355.74 1426.86,1357.06 1431.13,1357.06 1431.13,1360.57 1435.41,1360.57 1435.41,1363.69 1439.68,1363.69 1439.68,1366.5 1443.96,1366.5 1443.96,1370.48 
  1448.23,1370.48 1448.23,1373.37 1452.51,1373.37 1452.51,1375.69 1456.79,1375.69 1456.79,1379.02 1461.06,1379.02 1461.06,1379.5 1465.34,1379.5 1465.34,1384.45 
  1469.61,1384.45 1469.61,1387.34 1473.89,1387.34 1473.89,1389.58 1478.16,1389.58 1478.16,1392.99 1482.44,1392.99 1482.44,1395.73 1486.71,1395.73 1486.71,1399.37 
  1490.99,1399.37 1490.99,1402.96 1495.26,1402.96 1495.26,1405.82 1499.54,1405.82 1499.54,1408.26 1503.81,1408.26 1503.81,1412.32 1508.09,1412.32 1508.09,1416.6 
  1512.36,1416.6 1512.36,1421.63 1516.64,1421.63 1516.64,1424.35 1520.91,1424.35 1520.91,1428.5 1525.19,1428.5 1525.19,1432.46 1529.46,1432.46 1529.46,1434.21 
  1533.74,1434.21 1533.74,1437.87 1538.01,1437.87 1538.01,1440.26 1542.29,1440.26 1542.29,1442.9 1546.56,1442.9 1546.56,1448.43 1550.84,1448.43 1550.84,1452.38 
  1555.11,1452.38 1555.11,1453.7 1559.39,1453.7 1559.39,1458.44 1563.66,1458.44 1563.66,1462.49 1567.94,1462.49 1567.94,1466.06 1572.22,1466.06 1572.22,1470.64 
  1576.49,1470.64 1576.49,1473.75 1580.77,1473.75 1580.77,1476.66 1585.04,1476.66 1585.04,1480.2 1589.32,1480.2 1589.32,1485.25 1593.59,1485.25 1593.59,1488.42 
  1597.87,1488.42 1597.87,1490.28 1602.14,1490.28 1602.14,1492.38 1606.42,1492.38 1606.42,1497.21 1610.69,1497.21 1610.69,1500.1 1614.97,1500.1 1614.97,1505.87 
  1619.24,1505.87 1619.24,1508.26 1623.52,1508.26 1623.52,1510.78 1627.79,1510.78 1627.79,1512.22 1632.07,1512.22 1632.07,1516.7 1636.34,1516.7 1636.34,1520.99 
  1640.62,1520.99 1640.62,1523.18 1644.89,1523.18 1644.89,1526.57 1649.17,1526.57 1649.17,1530.85 1653.44,1530.85 1653.44,1533.54 1657.72,1533.54 1657.72,1536.28 
  1661.99,1536.28 1661.99,1538.89 1666.27,1538.89 1666.27,1542.23 1670.54,1542.23 1670.54,1545.04 1674.82,1545.04 1674.82,1547.93 1679.09,1547.93 1679.09,1550.32 
  1683.37,1550.32 1683.37,1552.74 1687.65,1552.74 1687.65,1554.78 1691.92,1554.78 1691.92,1557.62 1696.2,1557.62 1696.2,1559.61 1700.47,1559.61 1700.47,1562.08 
  1704.75,1562.08 1704.75,1563.94 1709.02,1563.94 1709.02,1565.69 1713.3,1565.69 1713.3,1567.23 1717.57,1567.23 1717.57,1570.42 1721.85,1570.42 1721.85,1572.88 
  1726.12,1572.88 1726.12,1574.8 1730.4,1574.8 1730.4,1575.77 1734.67,1575.77 1734.67,1578.21 1738.95,1578.21 1738.95,1579.48 1743.22,1579.48 1743.22,1581.5 
  1747.5,1581.5 1747.5,1582.57 1751.77,1582.57 1751.77,1584.64 1756.05,1584.64 1756.05,1586.43 1760.32,1586.43 1760.32,1587.37 1764.6,1587.37 1764.6,1589.34 
  1768.87,1589.34 1768.87,1590.64 1773.15,1590.64 1773.15,1591.28 1777.42,1591.28 1777.42,1593.03 1781.7,1593.03 1781.7,1594.82 1785.97,1594.82 1785.97,1596.31 
  1790.25,1596.31 1794.52,1596.31 1794.52,1597.19 1798.8,1597.19 1798.8,1599.15 1803.08,1599.15 1803.08,1600.27 1807.35,1600.27 1807.35,1601.79 
  1811.63,1601.79 1811.63,1603.49 1815.9,1603.49 1815.9,1604.23 1820.18,1604.23 1820.18,1604.83 1824.45,1604.83 1824.45,1605.6 1828.73,1605.6 1828.73,1606.8 
  1833,1606.8 1833,1607.47 1837.28,1607.47 1837.28,1607.59 1841.55,1607.59 1841.55,1608.62 1845.83,1608.62 1845.83,1609.09 1850.1,1609.09 1850.1,1610.01 
  1854.38,1610.01 1854.38,1610.53 1858.65,1610.53 1858.65,1611.6 1862.93,1611.6 1862.93,1611.85 1867.2,1611.85 1867.2,1612.23 1871.48,1612.23 1871.48,1612.55 
  1875.75,1612.55 1875.75,1612.85 1880.03,1612.85 1880.03,1613.22 1884.3,1613.22 1884.3,1614.09 1888.58,1614.09 1888.58,1615.12 1892.85,1615.12 1892.85,1615.66 
  1897.13,1615.66 1897.13,1616.16 1901.4,1616.16 1901.4,1616.61 1905.68,1616.61 1905.68,1616.56 1909.95,1616.56 1909.95,1617.33 1914.23,1617.33 1914.23,1617.75 
  1918.51,1617.75 1918.51,1617.73 1922.78,1617.73 1922.78,1617.98 1927.06,1617.98 1927.06,1618.4 1931.33,1618.4 1931.33,1618.58 1935.61,1618.58 1935.61,1618.48 
  1939.88,1618.48 1939.88,1618.92 1944.16,1618.92 1944.16,1619.07 1948.43,1619.07 1948.43,1618.97 1952.71,1618.97 1952.71,1619.05 1956.98,1619.05 1956.98,1619.12 
  1961.26,1619.12 1961.26,1619.17 1965.53,1619.17 1965.53,1619.52 1969.81,1619.52 1969.81,1619.65 1974.08,1619.65 1974.08,1619.92 1978.36,1619.92 1978.36,1619.85 
  1982.63,1619.85 1982.63,1620.15 1986.91,1620.15 1986.91,1620 1991.18,1620 1991.18,1620.02 1995.46,1620.02 1995.46,1620.12 1999.73,1620.12 1999.73,1620.24 
  2004.01,1620.24 2008.28,1620.24 2008.28,1620.29 2012.56,1620.29 2012.56,1620.15 2016.83,1620.15 2016.83,1620.17 2021.11,1620.17 2021.11,1620.15 
  2025.38,1620.15 2025.38,1620.19 2029.66,1620.19 2029.66,1620.32 2033.94,1620.32 2033.94,1620.39 2038.21,1620.39 2042.49,1620.39 2042.49,1620.37 
  2046.76,1620.37 2046.76,1620.32 2051.04,1620.32 2051.04,1620.39 2055.31,1620.39 2055.31,1620.37 2059.59,1620.37 2059.59,1620.44 2063.86,1620.44 2063.86,1620.34 
  2068.14,1620.34 2068.14,1620.59 2072.41,1620.59 2072.41,1620.69 2076.69,1620.69 2076.69,1620.59 2080.96,1620.59 2080.96,1620.69 2085.24,1620.69 
  2089.51,1620.69 2093.79,1620.69 2093.79,1620.72 2098.06,1620.72 2098.06,1620.89 2102.34,1620.89 2102.34,1620.84 2106.61,1620.84 2106.61,1620.89 
  2110.89,1620.89 2110.89,1621.02 2115.16,1621.02 2115.16,1620.99 2119.44,1620.99 2119.44,1620.97 2123.71,1620.97 2123.71,1621.12 2127.99,1621.12 
  2132.26,1621.12 2132.26,1621.17 2136.54,1621.17 2136.54,1621.14 2140.81,1621.14 2140.81,1621.17 2145.09,1621.17 2145.09,1621.22 2149.37,1621.22 2149.37,1621.27 
  2153.64,1621.27 2153.64,1621.39 2157.92,1621.39 2157.92,1621.37 2162.19,1621.37 2162.19,1621.42 2166.47,1621.42 2166.47,1621.44 2170.74,1621.44 2170.74,1621.39 
  2175.02,1621.39 2175.02,1621.42 2179.29,1621.42 2179.29,1621.34 2183.57,1621.34 2183.57,1621.46 2187.84,1621.46 2187.84,1621.39 2192.12,1621.39 2192.12,1621.37 
  2196.39,1621.37 2196.39,1621.44 2200.67,1621.44 2200.67,1621.49 2204.94,1621.49 2209.22,1621.49 2209.22,1621.42 2213.49,1621.42 
  2217.77,1621.42 2217.77,1621.49 2222.04,1621.49 2222.04,1621.51 2226.32,1621.51 2226.32,1621.59 2230.59,1621.59 2230.59,1621.56 2234.87,1621.56 2234.87,1621.61 
  2239.14,1621.61 2239.14,1621.56 2243.42,1621.56 2243.42,1621.59 2247.69,1621.59 2247.69,1621.56 2251.97,1621.56 2251.97,1621.61 2256.24,1621.61 2256.24,1621.59 
  2260.52,1621.59 2260.52,1621.61 2264.8,1621.61 2264.8,1621.56 2269.07,1621.56 2269.07,1621.54 2273.35,1621.54 2273.35,1621.51 2277.62,1621.51 2277.62,1621.61 
  2281.9,1621.61 2281.9,1621.64 2286.17,1621.64 2286.17,1621.61 2290.45,1621.61 2294.72,1621.61 2294.72,1621.64 2299,1621.64 
  2303.27,1621.64 2307.55,1621.64 2311.82,1621.64 2316.1,1621.64 2316.1,1621.61 2320.37,1621.61 
  2324.65,1621.61 2324.65,1621.64 2328.92,1621.64 2333.2,1621.64 2333.2,1621.69 2337.47,1621.69 2337.47,1621.66 2341.75,1621.66 
  2346.02,1621.66 2346.02,1621.69 2350.3,1621.69 2350.3,1621.66 2354.57,1621.66 2358.85,1621.66 2358.85,1621.69 2363.12,1621.69 
  2367.4,1621.69 2367.4,1621.71 2371.67,1621.71 2371.67,1621.79 2375.95,1621.79 2380.23,1621.79 2384.5,1621.79 
  2388.78,1621.79 2393.05,1621.79 2397.33,1621.79 2401.6,1621.79 2405.88,1621.79 
  2410.15,1621.79 2414.43,1621.79 2418.7,1621.79 2422.98,1621.79 2427.25,1621.79 
  2431.53,1621.79 2435.8,1621.79 2440.08,1621.79 2444.35,1621.79 2448.63,1621.79 
  "/>
<polyline clip-path="url(#clip5603)" style="stroke:#008000; stroke-width:4; stroke-opacity:1; fill:none" points="
  315.311,1621.79 315.311,1587.87 319.586,1587.87 319.586,1565.61 323.861,1565.61 323.861,1548.63 328.136,1548.63 328.136,1532.87 332.411,1532.87 332.411,1520.56 
  336.686,1520.56 336.686,1510.13 340.962,1510.13 340.962,1497.53 345.237,1497.53 345.237,1487.89 349.512,1487.89 349.512,1479.18 353.787,1479.18 353.787,1470.36 
  358.062,1470.36 358.062,1461.27 362.338,1461.27 362.338,1452.26 366.613,1452.26 366.613,1443.07 370.888,1443.07 370.888,1435.9 375.163,1435.9 375.163,1429.08 
  379.438,1429.08 379.438,1420.64 383.713,1420.64 383.713,1412.17 387.989,1412.17 387.989,1403.85 392.264,1403.85 392.264,1398.15 396.539,1398.15 396.539,1393.32 
  400.814,1393.32 400.814,1387.84 405.089,1387.84 405.089,1381.74 409.365,1381.74 409.365,1374.82 413.64,1374.82 413.64,1369.51 417.915,1369.51 417.915,1363.91 
  422.19,1363.91 422.19,1357.39 426.465,1357.39 426.465,1352.9 430.741,1352.9 430.741,1348.5 435.016,1348.5 435.016,1343.59 439.291,1343.59 439.291,1337.91 
  443.566,1337.91 443.566,1334.13 447.841,1334.13 447.841,1330.34 452.116,1330.34 452.116,1323.72 456.392,1323.72 456.392,1320.56 460.667,1320.56 460.667,1316.45 
  464.942,1316.45 464.942,1312.89 469.217,1312.89 469.217,1308.5 473.492,1308.5 473.492,1304.35 477.768,1304.35 477.768,1300.21 482.043,1300.21 482.043,1298.24 
  486.318,1298.24 486.318,1293.71 490.593,1293.71 490.593,1290.4 494.868,1290.4 494.868,1287.29 499.143,1287.29 499.143,1282.91 503.419,1282.91 503.419,1280.66 
  507.694,1280.66 507.694,1276.66 511.969,1276.66 511.969,1275.24 516.244,1275.24 516.244,1273.32 520.519,1273.32 520.519,1271.82 524.795,1271.82 524.795,1270.55 
  529.07,1270.55 529.07,1268.29 533.345,1268.29 533.345,1268.54 537.62,1268.54 537.62,1264.6 541.895,1264.6 541.895,1262.39 546.171,1262.39 546.171,1259.52 
  550.446,1259.52 550.446,1258.75 554.721,1258.75 554.721,1256.98 558.996,1256.98 558.996,1255.61 563.271,1255.61 563.271,1253.52 567.546,1253.52 567.546,1250.33 
  571.822,1250.33 571.822,1249.86 576.097,1249.86 576.097,1250.01 580.372,1250.01 580.372,1248.37 584.647,1248.37 584.647,1246.25 588.922,1246.25 588.922,1246.52 
  593.198,1246.52 593.198,1243.98 597.473,1243.98 597.473,1242.91 601.748,1242.91 601.748,1243.76 606.023,1243.76 606.023,1244.31 610.298,1244.31 610.298,1244.33 
  614.574,1244.33 614.574,1242.94 618.849,1242.94 618.849,1241.99 623.124,1241.99 623.124,1240.45 627.399,1240.45 627.399,1241.12 631.674,1241.12 631.674,1240.07 
  635.949,1240.07 635.949,1239.38 640.225,1239.38 640.225,1237.58 644.5,1237.58 644.5,1236.07 648.775,1236.07 648.775,1235.54 653.05,1235.54 653.05,1235.74 
  657.325,1235.74 657.325,1237.39 661.601,1237.39 661.601,1237.21 665.876,1237.21 665.876,1238.73 670.151,1238.73 670.151,1237.61 674.426,1237.61 674.426,1236.71 
  678.701,1236.71 678.701,1237.54 682.976,1237.54 682.976,1236.51 687.252,1236.51 687.252,1236.36 691.527,1236.36 691.527,1237.36 695.802,1237.36 695.802,1238.98 
  700.077,1238.98 700.077,1236.09 704.352,1236.09 704.352,1235.99 708.628,1235.99 708.628,1234.57 712.903,1234.57 712.903,1236.74 717.178,1236.74 
  721.453,1236.74 721.453,1237.01 725.728,1237.01 725.728,1237.96 730.004,1237.96 730.004,1235.69 734.279,1235.69 734.279,1237.21 738.554,1237.21 738.554,1236.46 
  742.829,1236.46 742.829,1237.36 747.104,1237.36 747.104,1238.36 751.379,1238.36 751.379,1240.22 755.655,1240.22 755.655,1239.9 759.93,1239.9 759.93,1240.47 
  764.205,1240.47 764.205,1239.68 768.48,1239.68 768.48,1242.02 772.755,1242.02 772.755,1243.26 777.031,1243.26 777.031,1244.11 781.306,1244.11 781.306,1245.93 
  785.581,1245.93 785.581,1246.65 789.856,1246.65 789.856,1248.19 794.131,1248.19 794.131,1247.77 798.406,1247.77 798.406,1248.04 802.682,1248.04 802.682,1249.01 
  806.957,1249.01 806.957,1246.55 811.232,1246.55 811.232,1248.67 815.507,1248.67 815.507,1250.41 819.782,1250.41 819.782,1253.67 824.058,1253.67 824.058,1254.19 
  828.333,1254.19 828.333,1251.65 832.608,1251.65 832.608,1254.72 836.883,1254.72 836.883,1254.52 841.158,1254.52 841.158,1254.89 845.434,1254.89 845.434,1252.05 
  849.709,1252.05 849.709,1255.29 853.984,1255.29 858.259,1255.29 858.259,1256.83 862.534,1256.83 862.534,1258.43 866.809,1258.43 866.809,1257.85 
  871.085,1257.85 871.085,1257.63 875.36,1257.63 875.36,1259.25 879.635,1259.25 879.635,1261.96 883.91,1261.96 883.91,1259.32 888.185,1259.32 888.185,1263.71 
  892.461,1263.71 892.461,1263.41 896.736,1263.41 896.736,1262.91 901.011,1262.91 901.011,1265.1 905.286,1265.1 905.286,1266.94 909.561,1266.94 909.561,1266.67 
  913.836,1266.67 913.836,1268.71 918.112,1268.71 918.112,1267.69 922.387,1267.69 922.387,1269.93 926.662,1269.93 926.662,1269.71 930.937,1269.71 930.937,1272.1 
  935.212,1272.1 935.212,1271.5 939.488,1271.5 939.488,1274.31 943.763,1274.31 943.763,1273.59 948.038,1273.59 948.038,1276.16 952.313,1276.16 952.313,1279.2 
  956.588,1279.2 956.588,1279.1 960.864,1279.1 960.864,1279 965.139,1279 965.139,1280.14 969.414,1280.14 969.414,1280.42 973.689,1280.42 973.689,1282.46 
  977.964,1282.46 977.964,1280.19 982.239,1280.19 982.239,1284.77 986.515,1284.77 986.515,1285.25 990.79,1285.25 990.79,1287.26 995.065,1287.26 995.065,1288.23 
  999.34,1288.23 999.34,1286.86 1003.62,1286.86 1003.62,1289.31 1007.89,1289.31 1007.89,1290.3 1012.17,1290.3 1012.17,1291.02 1016.44,1291.02 1016.44,1289.93 
  1020.72,1289.93 1020.72,1292.24 1024.99,1292.24 1024.99,1291.6 1029.27,1291.6 1029.27,1292.79 1033.54,1292.79 1033.54,1294.41 1037.82,1294.41 1037.82,1293.86 
  1042.09,1293.86 1042.09,1295.31 1046.37,1295.31 1046.37,1298.1 1050.64,1298.1 1050.64,1298.69 1054.92,1298.69 1054.92,1298.22 1059.19,1298.22 1059.19,1299.99 
  1063.47,1299.99 1063.47,1300.11 1067.74,1300.11 1067.74,1301.68 1072.02,1301.68 1072.02,1302.38 1076.29,1302.38 1076.29,1304.3 1080.57,1304.3 1080.57,1306.09 
  1084.84,1306.09 1084.84,1307.96 1089.12,1307.96 1089.12,1311.82 1093.39,1311.82 1093.39,1311.79 1097.67,1311.79 1097.67,1314.51 1101.94,1314.51 1101.94,1313.76 
  1106.22,1313.76 1106.22,1317.57 1110.5,1317.57 1110.5,1318.59 1114.77,1318.59 1114.77,1318.51 1119.05,1318.51 1119.05,1320.81 1123.32,1320.81 1123.32,1319.76 
  1127.6,1319.76 1127.6,1321.1 1131.87,1321.1 1131.87,1323.44 1136.15,1323.44 1136.15,1325.74 1140.42,1325.74 1140.42,1324.52 1144.7,1324.52 1144.7,1325.51 
  1148.97,1325.51 1148.97,1330.89 1153.25,1330.89 1153.25,1334.3 1157.52,1334.3 1157.52,1333.01 1161.8,1333.01 1161.8,1334.85 1166.07,1334.85 1166.07,1337.04 
  1170.35,1337.04 1170.35,1338.96 1174.62,1338.96 1174.62,1342.74 1178.9,1342.74 1178.9,1341.3 1183.17,1341.3 1183.17,1342.89 1187.45,1342.89 1187.45,1343.79 
  1191.72,1343.79 1191.72,1345.33 1196,1345.33 1196,1345.63 1200.27,1345.63 1200.27,1347.57 1204.55,1347.57 1204.55,1350.01 1208.82,1350.01 1208.82,1350.96 
  1213.1,1350.96 1213.1,1353.35 1217.37,1353.35 1217.37,1355.32 1221.65,1355.32 1221.65,1353.97 1225.93,1353.97 1225.93,1355.12 1230.2,1355.12 1230.2,1357.86 
  1234.48,1357.86 1234.48,1359.63 1238.75,1359.63 1238.75,1362.14 1243.03,1362.14 1243.03,1363.24 1247.3,1363.24 1247.3,1363.39 1251.58,1363.39 1251.58,1364.91 
  1255.85,1364.91 1255.85,1366.28 1260.13,1366.28 1260.13,1369.06 1264.4,1369.06 1264.4,1368.99 1268.68,1368.99 1268.68,1371.65 1272.95,1371.65 1272.95,1374.64 
  1277.23,1374.64 1277.23,1373.87 1281.5,1373.87 1281.5,1377.21 1285.78,1377.21 1285.78,1378.85 1290.05,1378.85 1290.05,1381.94 1294.33,1381.94 1294.33,1383.06 
  1298.6,1383.06 1298.6,1386.37 1302.88,1386.37 1302.88,1386.99 1307.15,1386.99 1307.15,1387.34 1311.43,1387.34 1311.43,1388.34 1315.7,1388.34 1315.7,1391.03 
  1319.98,1391.03 1319.98,1391.35 1324.25,1391.35 1324.25,1391.4 1328.53,1391.4 1328.53,1394.86 1332.8,1394.86 1332.8,1396.21 1337.08,1396.21 1337.08,1397.28 
  1341.36,1397.28 1341.36,1401.59 1345.63,1401.59 1345.63,1402.68 1349.91,1402.68 1349.91,1403.2 1354.18,1403.2 1354.18,1404.32 1358.46,1404.32 1358.46,1406.32 
  1362.73,1406.32 1362.73,1408.48 1367.01,1408.48 1367.01,1411 1371.28,1411 1371.28,1412.02 1375.56,1412.02 1375.56,1412.22 1379.83,1412.22 1379.83,1413.74 
  1384.11,1413.74 1384.11,1415.83 1388.38,1415.83 1388.38,1419.46 1392.66,1419.46 1392.66,1422.68 1396.93,1422.68 1396.93,1425.27 1401.21,1425.27 1401.21,1426.56 
  1405.48,1426.56 1405.48,1429.55 1409.76,1429.55 1409.76,1430.97 1414.03,1430.97 1414.03,1433.33 1418.31,1433.33 1418.31,1436.87 1422.58,1436.87 1422.58,1439.49 
  1426.86,1439.49 1426.86,1440.48 1431.13,1440.48 1431.13,1442.85 1435.41,1442.85 1435.41,1445.56 1439.68,1445.56 1439.68,1447.75 1443.96,1447.75 1443.96,1451.74 
  1448.23,1451.74 1448.23,1454.2 1452.51,1454.2 1452.51,1455.52 1456.79,1455.52 1456.79,1457.34 1461.06,1457.34 1461.06,1458.19 1465.34,1458.19 1465.34,1461.85 
  1469.61,1461.85 1469.61,1464.56 1473.89,1464.56 1473.89,1466.83 1478.16,1466.83 1478.16,1468.3 1482.44,1468.3 1482.44,1470.31 1486.71,1470.31 1486.71,1473.53 
  1490.99,1473.53 1490.99,1476.46 1495.26,1476.46 1495.26,1479.55 1499.54,1479.55 1499.54,1480.67 1503.81,1480.67 1503.81,1484.08 1508.09,1484.08 1508.09,1487.17 
  1512.36,1487.17 1512.36,1488.94 1516.64,1488.94 1516.64,1492.92 1520.91,1492.92 1520.91,1494.84 1525.19,1494.84 1525.19,1498.55 1529.46,1498.55 1529.46,1499.65 
  1533.74,1499.65 1533.74,1502.34 1538.01,1502.34 1538.01,1504.13 1542.29,1504.13 1542.29,1506.4 1546.56,1506.4 1546.56,1510.55 1550.84,1510.55 1550.84,1512.45 
  1555.11,1512.45 1555.11,1514.02 1559.39,1514.02 1559.39,1515.51 1563.66,1515.51 1563.66,1519.77 1567.94,1519.77 1567.94,1522.33 1572.22,1522.33 1572.22,1525.69 
  1576.49,1525.69 1576.49,1527.29 1580.77,1527.29 1580.77,1529.98 1585.04,1529.98 1585.04,1532.82 1589.32,1532.82 1589.32,1535.23 1593.59,1535.23 1593.59,1537.95 
  1597.87,1537.95 1597.87,1540.86 1602.14,1540.86 1602.14,1541.48 1606.42,1541.48 1606.42,1544.02 1610.69,1544.02 1610.69,1545.29 1614.97,1545.29 1614.97,1549.15 
  1619.24,1549.15 1619.24,1551.69 1623.52,1551.69 1623.52,1553.33 1627.79,1553.33 1627.79,1554.98 1632.07,1554.98 1632.07,1555.97 1636.34,1555.97 1636.34,1559.34 
  1640.62,1559.34 1640.62,1562.22 1644.89,1562.22 1644.89,1564.89 1649.17,1564.89 1649.17,1565.81 1653.44,1565.81 1653.44,1568.13 1657.72,1568.13 1657.72,1569.37 
  1661.99,1569.37 1661.99,1571.74 1666.27,1571.74 1666.27,1573.13 1670.54,1573.13 1670.54,1575 1674.82,1575 1674.82,1576.92 1679.09,1576.92 1679.09,1578.09 
  1683.37,1578.09 1683.37,1580 1687.65,1580 1687.65,1580.58 1691.92,1580.58 1691.92,1583.14 1696.2,1583.14 1696.2,1584.49 1700.47,1584.49 1700.47,1586.01 
  1704.75,1586.01 1704.75,1587.13 1709.02,1587.13 1709.02,1588.12 1713.3,1588.12 1713.3,1588.77 1717.57,1588.77 1717.57,1591.83 1721.85,1591.83 1721.85,1593.87 
  1726.12,1593.87 1726.12,1595.17 1730.4,1595.17 1730.4,1596.02 1734.67,1596.02 1734.67,1596.56 1738.95,1596.56 1738.95,1597.04 1743.22,1597.04 1743.22,1597.98 
  1747.5,1597.98 1747.5,1599.03 1751.77,1599.03 1751.77,1600.37 1756.05,1600.37 1756.05,1601.24 1760.32,1601.24 1760.32,1601.49 1764.6,1601.49 1764.6,1602.86 
  1768.87,1602.86 1768.87,1603.81 1773.15,1603.81 1773.15,1604.36 1777.42,1604.36 1777.42,1605.7 1781.7,1605.7 1781.7,1606.37 1785.97,1606.37 1785.97,1607.55 
  1790.25,1607.55 1790.25,1607.82 1794.52,1607.82 1798.8,1607.82 1798.8,1608.81 1803.08,1608.81 1803.08,1609.14 1807.35,1609.14 1807.35,1610.08 
  1811.63,1610.08 1811.63,1611.01 1815.9,1611.01 1815.9,1612 1820.18,1612 1820.18,1612.35 1824.45,1612.35 1824.45,1612.9 1828.73,1612.9 1828.73,1613.3 
  1833,1613.3 1833,1613.89 1837.28,1613.89 1837.28,1614.12 1841.55,1614.12 1841.55,1614.52 1845.83,1614.52 1845.83,1614.82 1850.1,1614.82 
  1854.38,1614.82 1854.38,1615.39 1858.65,1615.39 1858.65,1615.61 1862.93,1615.61 1862.93,1616.21 1867.2,1616.21 1867.2,1616.88 1871.48,1616.88 1871.48,1616.98 
  1875.75,1616.98 1875.75,1616.91 1880.03,1616.91 1880.03,1617.06 1884.3,1617.06 1884.3,1617.38 1888.58,1617.38 1888.58,1617.95 1892.85,1617.95 1892.85,1618.38 
  1897.13,1618.38 1897.13,1618.43 1901.4,1618.43 1901.4,1618.7 1905.68,1618.7 1905.68,1618.97 1909.95,1618.97 1909.95,1619.35 1914.23,1619.35 1914.23,1619.55 
  1918.51,1619.55 1918.51,1619.62 1922.78,1619.62 1922.78,1619.37 1927.06,1619.37 1927.06,1619.8 1931.33,1619.8 1931.33,1619.77 1935.61,1619.77 1935.61,1619.75 
  1939.88,1619.75 1939.88,1620.02 1944.16,1620.02 1944.16,1619.97 1948.43,1619.97 1948.43,1620.02 1952.71,1620.02 1952.71,1620.1 1956.98,1620.1 1956.98,1620.22 
  1961.26,1620.22 1961.26,1620.32 1965.53,1620.32 1965.53,1620.37 1969.81,1620.37 1969.81,1620.52 1974.08,1620.52 1974.08,1620.72 1978.36,1620.72 1978.36,1620.59 
  1982.63,1620.59 1982.63,1620.92 1986.91,1620.92 1986.91,1620.79 1991.18,1620.79 1991.18,1620.82 1995.46,1620.82 1995.46,1620.92 1999.73,1620.92 1999.73,1620.89 
  2004.01,1620.89 2004.01,1620.79 2008.28,1620.79 2008.28,1620.74 2012.56,1620.74 2012.56,1620.79 2016.83,1620.79 2016.83,1620.82 2021.11,1620.82 2021.11,1620.84 
  2025.38,1620.84 2025.38,1620.79 2029.66,1620.79 2029.66,1620.82 2033.94,1620.82 2033.94,1620.84 2038.21,1620.84 2038.21,1620.94 2042.49,1620.94 2042.49,1620.92 
  2046.76,1620.92 2051.04,1620.92 2051.04,1620.99 2055.31,1620.99 2055.31,1621.02 2059.59,1621.02 2059.59,1621.09 2063.86,1621.09 2063.86,1621.04 
  2068.14,1621.04 2068.14,1621.09 2072.41,1621.09 2072.41,1621.24 2076.69,1621.24 2076.69,1621.07 2080.96,1621.07 2080.96,1621.14 2085.24,1621.14 2085.24,1621.09 
  2089.51,1621.09 2089.51,1621.14 2093.79,1621.14 2093.79,1621.12 2098.06,1621.12 2098.06,1621.24 2102.34,1621.24 2102.34,1621.29 2106.61,1621.29 2106.61,1621.27 
  2110.89,1621.27 2110.89,1621.37 2115.16,1621.37 2115.16,1621.34 2119.44,1621.34 2119.44,1621.32 2123.71,1621.32 2123.71,1621.42 2127.99,1621.42 2127.99,1621.51 
  2132.26,1621.51 2136.54,1621.51 2136.54,1621.44 2140.81,1621.44 2145.09,1621.44 2145.09,1621.56 2149.37,1621.56 2149.37,1621.61 
  2153.64,1621.61 2153.64,1621.59 2157.92,1621.59 2157.92,1621.56 2162.19,1621.56 2166.47,1621.56 2166.47,1621.64 2170.74,1621.64 2170.74,1621.59 
  2175.02,1621.59 2175.02,1621.56 2179.29,1621.56 2179.29,1621.49 2183.57,1621.49 2183.57,1621.56 2187.84,1621.56 2187.84,1621.59 2192.12,1621.59 2192.12,1621.56 
  2196.39,1621.56 2196.39,1621.64 2200.67,1621.64 2204.94,1621.64 2209.22,1621.64 2209.22,1621.61 2213.49,1621.61 2213.49,1621.56 
  2217.77,1621.56 2217.77,1621.69 2222.04,1621.69 2222.04,1621.66 2226.32,1621.66 2226.32,1621.69 2230.59,1621.69 2230.59,1621.66 2234.87,1621.66 2234.87,1621.71 
  2239.14,1621.71 2239.14,1621.66 2243.42,1621.66 2243.42,1621.69 2247.69,1621.69 2247.69,1621.66 2251.97,1621.66 2256.24,1621.66 2256.24,1621.69 
  2260.52,1621.69 2260.52,1621.71 2264.8,1621.71 2264.8,1621.66 2269.07,1621.66 2269.07,1621.64 2273.35,1621.64 2273.35,1621.61 2277.62,1621.61 
  2281.9,1621.61 2281.9,1621.69 2286.17,1621.69 2286.17,1621.71 2290.45,1621.71 2290.45,1621.66 2294.72,1621.66 2294.72,1621.74 2299,1621.74 
  2303.27,1621.74 2303.27,1621.69 2307.55,1621.69 2311.82,1621.69 2311.82,1621.74 2316.1,1621.74 2316.1,1621.71 2320.37,1621.71 
  2324.65,1621.71 2324.65,1621.69 2328.92,1621.69 2328.92,1621.74 2333.2,1621.74 2337.47,1621.74 2337.47,1621.71 2341.75,1621.71 2341.75,1621.76 
  2346.02,1621.76 2346.02,1621.74 2350.3,1621.74 2350.3,1621.71 2354.57,1621.71 2358.85,1621.71 2358.85,1621.74 2363.12,1621.74 
  2367.4,1621.74 2367.4,1621.76 2371.67,1621.76 2371.67,1621.79 2375.95,1621.79 2380.23,1621.79 2384.5,1621.79 
  2388.78,1621.79 2393.05,1621.79 2397.33,1621.79 2401.6,1621.79 2405.88,1621.79 
  2410.15,1621.79 2414.43,1621.79 2418.7,1621.79 2422.98,1621.79 2427.25,1621.79 
  2431.53,1621.79 2435.8,1621.79 2440.08,1621.79 2444.35,1621.79 2448.63,1621.79 
  "/>
<path clip-path="url(#clip5600)" d="
M1948.88 1233.51 L2394.75 1233.51 L2394.75 1052.07 L1948.88 1052.07  Z
  " fill="#ffffff" fill-rule="evenodd" fill-opacity="1"/>
<polyline clip-path="url(#clip5600)" style="stroke:#000000; stroke-width:4; stroke-opacity:1; fill:none" points="
  1948.88,1233.51 2394.75,1233.51 2394.75,1052.07 1948.88,1052.07 1948.88,1233.51 
  "/>
<polyline clip-path="url(#clip5600)" style="stroke:#ffa500; stroke-width:4; stroke-opacity:1; fill:none" points="
  1976.88,1112.55 2144.88,1112.55 
  "/>
<g clip-path="url(#clip5600)">
<text style="fill:#000000; fill-opacity:1; font-family:Arial,Helvetica Neue,Helvetica,sans-serif; font-size:48px; text-anchor:start;" transform="rotate(0, 2172.88, 1130.05)" x="2172.88" y="1130.05">Inside</text>
</g>
<polyline clip-path="url(#clip5600)" style="stroke:#008000; stroke-width:4; stroke-opacity:1; fill:none" points="
  1976.88,1173.03 2144.88,1173.03 
  "/>
<g clip-path="url(#clip5600)">
<text style="fill:#000000; fill-opacity:1; font-family:Arial,Helvetica Neue,Helvetica,sans-serif; font-size:48px; text-anchor:start;" transform="rotate(0, 2172.88, 1190.53)" x="2172.88" y="1190.53">Outside</text>
</g>
<path clip-path="url(#clip5600)" d="
M246.908 2573.8 L2512.76 2573.8 L2512.76 1913.91 L246.908 1913.91  Z
  " fill="#ffffff" fill-rule="evenodd" fill-opacity="1"/>
<defs>
  <clipPath id="clip5604">
    <rect x="246" y="1913" width="2267" height="661"/>
  </clipPath>
</defs>
<polyline clip-path="url(#clip5604)" style="stroke:#000000; stroke-width:2; stroke-opacity:0.1; fill:none" points="
  311.035,2573.8 311.035,1913.91 
  "/>
<polyline clip-path="url(#clip5604)" style="stroke:#000000; stroke-width:2; stroke-opacity:0.1; fill:none" points="
  738.554,2573.8 738.554,1913.91 
  "/>
<polyline clip-path="url(#clip5604)" style="stroke:#000000; stroke-width:2; stroke-opacity:0.1; fill:none" points="
  1166.07,2573.8 1166.07,1913.91 
  "/>
<polyline clip-path="url(#clip5604)" style="stroke:#000000; stroke-width:2; stroke-opacity:0.1; fill:none" points="
  1593.59,2573.8 1593.59,1913.91 
  "/>
<polyline clip-path="url(#clip5604)" style="stroke:#000000; stroke-width:2; stroke-opacity:0.1; fill:none" points="
  2021.11,2573.8 2021.11,1913.91 
  "/>
<polyline clip-path="url(#clip5604)" style="stroke:#000000; stroke-width:2; stroke-opacity:0.1; fill:none" points="
  2448.63,2573.8 2448.63,1913.91 
  "/>
<polyline clip-path="url(#clip5604)" style="stroke:#000000; stroke-width:2; stroke-opacity:0.1; fill:none" points="
  246.908,2555.12 2512.76,2555.12 
  "/>
<polyline clip-path="url(#clip5604)" style="stroke:#000000; stroke-width:2; stroke-opacity:0.1; fill:none" points="
  246.908,2399.49 2512.76,2399.49 
  "/>
<polyline clip-path="url(#clip5604)" style="stroke:#000000; stroke-width:2; stroke-opacity:0.1; fill:none" points="
  246.908,2243.85 2512.76,2243.85 
  "/>
<polyline clip-path="url(#clip5604)" style="stroke:#000000; stroke-width:2; stroke-opacity:0.1; fill:none" points="
  246.908,2088.22 2512.76,2088.22 
  "/>
<polyline clip-path="url(#clip5604)" style="stroke:#000000; stroke-width:2; stroke-opacity:0.1; fill:none" points="
  246.908,1932.59 2512.76,1932.59 
  "/>
<polyline clip-path="url(#clip5600)" style="stroke:#000000; stroke-width:4; stroke-opacity:1; fill:none" points="
  246.908,2573.8 2512.76,2573.8 
  "/>
<polyline clip-path="url(#clip5600)" style="stroke:#000000; stroke-width:4; stroke-opacity:1; fill:none" points="
  246.908,2573.8 246.908,1913.91 
  "/>
<polyline clip-path="url(#clip5600)" style="stroke:#000000; stroke-width:4; stroke-opacity:1; fill:none" points="
  311.035,2573.8 311.035,2565.88 
  "/>
<polyline clip-path="url(#clip5600)" style="stroke:#000000; stroke-width:4; stroke-opacity:1; fill:none" points="
  738.554,2573.8 738.554,2565.88 
  "/>
<polyline clip-path="url(#clip5600)" style="stroke:#000000; stroke-width:4; stroke-opacity:1; fill:none" points="
  1166.07,2573.8 1166.07,2565.88 
  "/>
<polyline clip-path="url(#clip5600)" style="stroke:#000000; stroke-width:4; stroke-opacity:1; fill:none" points="
  1593.59,2573.8 1593.59,2565.88 
  "/>
<polyline clip-path="url(#clip5600)" style="stroke:#000000; stroke-width:4; stroke-opacity:1; fill:none" points="
  2021.11,2573.8 2021.11,2565.88 
  "/>
<polyline clip-path="url(#clip5600)" style="stroke:#000000; stroke-width:4; stroke-opacity:1; fill:none" points="
  2448.63,2573.8 2448.63,2565.88 
  "/>
<polyline clip-path="url(#clip5600)" style="stroke:#000000; stroke-width:4; stroke-opacity:1; fill:none" points="
  246.908,2555.12 274.098,2555.12 
  "/>
<polyline clip-path="url(#clip5600)" style="stroke:#000000; stroke-width:4; stroke-opacity:1; fill:none" points="
  246.908,2399.49 274.098,2399.49 
  "/>
<polyline clip-path="url(#clip5600)" style="stroke:#000000; stroke-width:4; stroke-opacity:1; fill:none" points="
  246.908,2243.85 274.098,2243.85 
  "/>
<polyline clip-path="url(#clip5600)" style="stroke:#000000; stroke-width:4; stroke-opacity:1; fill:none" points="
  246.908,2088.22 274.098,2088.22 
  "/>
<polyline clip-path="url(#clip5600)" style="stroke:#000000; stroke-width:4; stroke-opacity:1; fill:none" points="
  246.908,1932.59 274.098,1932.59 
  "/>
<g clip-path="url(#clip5600)">
<text style="fill:#000000; fill-opacity:1; font-family:Arial,Helvetica Neue,Helvetica,sans-serif; font-size:48px; text-anchor:middle;" transform="rotate(0, 311.035, 2629.8)" x="311.035" y="2629.8">0</text>
</g>
<g clip-path="url(#clip5600)">
<text style="fill:#000000; fill-opacity:1; font-family:Arial,Helvetica Neue,Helvetica,sans-serif; font-size:48px; text-anchor:middle;" transform="rotate(0, 738.554, 2629.8)" x="738.554" y="2629.8">100</text>
</g>
<g clip-path="url(#clip5600)">
<text style="fill:#000000; fill-opacity:1; font-family:Arial,Helvetica Neue,Helvetica,sans-serif; font-size:48px; text-anchor:middle;" transform="rotate(0, 1166.07, 2629.8)" x="1166.07" y="2629.8">200</text>
</g>
<g clip-path="url(#clip5600)">
<text style="fill:#000000; fill-opacity:1; font-family:Arial,Helvetica Neue,Helvetica,sans-serif; font-size:48px; text-anchor:middle;" transform="rotate(0, 1593.59, 2629.8)" x="1593.59" y="2629.8">300</text>
</g>
<g clip-path="url(#clip5600)">
<text style="fill:#000000; fill-opacity:1; font-family:Arial,Helvetica Neue,Helvetica,sans-serif; font-size:48px; text-anchor:middle;" transform="rotate(0, 2021.11, 2629.8)" x="2021.11" y="2629.8">400</text>
</g>
<g clip-path="url(#clip5600)">
<text style="fill:#000000; fill-opacity:1; font-family:Arial,Helvetica Neue,Helvetica,sans-serif; font-size:48px; text-anchor:middle;" transform="rotate(0, 2448.63, 2629.8)" x="2448.63" y="2629.8">500</text>
</g>
<g clip-path="url(#clip5600)">
<text style="fill:#000000; fill-opacity:1; font-family:Arial,Helvetica Neue,Helvetica,sans-serif; font-size:48px; text-anchor:end;" transform="rotate(0, 218.908, 2572.62)" x="218.908" y="2572.62">0</text>
</g>
<g clip-path="url(#clip5600)">
<text style="fill:#000000; fill-opacity:1; font-family:Arial,Helvetica Neue,Helvetica,sans-serif; font-size:48px; text-anchor:end;" transform="rotate(0, 218.908, 2416.99)" x="218.908" y="2416.99">1</text>
</g>
<g clip-path="url(#clip5600)">
<text style="fill:#000000; fill-opacity:1; font-family:Arial,Helvetica Neue,Helvetica,sans-serif; font-size:48px; text-anchor:end;" transform="rotate(0, 218.908, 2261.35)" x="218.908" y="2261.35">2</text>
</g>
<g clip-path="url(#clip5600)">
<text style="fill:#000000; fill-opacity:1; font-family:Arial,Helvetica Neue,Helvetica,sans-serif; font-size:48px; text-anchor:end;" transform="rotate(0, 218.908, 2105.72)" x="218.908" y="2105.72">3</text>
</g>
<g clip-path="url(#clip5600)">
<text style="fill:#000000; fill-opacity:1; font-family:Arial,Helvetica Neue,Helvetica,sans-serif; font-size:48px; text-anchor:end;" transform="rotate(0, 218.908, 1950.09)" x="218.908" y="1950.09">4</text>
</g>
<g clip-path="url(#clip5600)">
<text style="fill:#000000; fill-opacity:1; font-family:Arial,Helvetica Neue,Helvetica,sans-serif; font-size:66px; text-anchor:middle;" transform="rotate(0, 1379.83, 2711.66)" x="1379.83" y="2711.66">macrosteps</text>
</g>
<g clip-path="url(#clip5600)">
<text style="fill:#000000; fill-opacity:1; font-family:Arial,Helvetica Neue,Helvetica,sans-serif; font-size:66px; text-anchor:middle;" transform="rotate(-90, 152.583, 2243.85)" x="152.583" y="2243.85">difference</text>
</g>
<polyline clip-path="url(#clip5604)" style="stroke:#000000; stroke-width:4; stroke-opacity:1; fill:none" points="
  315.311,1932.59 315.311,1932.59 319.586,1932.59 323.861,1932.59 328.136,1932.59 332.411,1932.59 
  336.686,1932.59 340.962,1932.59 345.237,1932.59 349.512,1932.59 353.787,1932.59 
  358.062,1932.59 362.338,1932.59 366.613,1932.59 370.888,1932.59 375.163,1932.59 
  379.438,1932.59 383.713,1932.59 387.989,1932.59 392.264,1932.59 396.539,1932.59 
  400.814,1932.59 400.814,1933.21 405.089,1933.21 405.089,1932.9 409.365,1932.9 409.365,1933.21 413.64,1933.21 417.915,1933.21 
  422.19,1933.21 422.19,1934.14 426.465,1934.14 426.465,1935.39 430.741,1935.39 430.741,1935.08 435.016,1935.08 435.016,1934.14 439.291,1934.14 
  443.566,1934.14 443.566,1935.08 447.841,1935.08 447.841,1935.7 452.116,1935.7 452.116,1936.32 456.392,1936.32 456.392,1935.08 460.667,1935.08 460.667,1935.39 
  464.942,1935.39 464.942,1936.63 469.217,1936.63 473.492,1936.63 473.492,1936.94 477.768,1936.94 477.768,1938.81 482.043,1938.81 482.043,1938.5 
  486.318,1938.5 486.318,1941.92 490.593,1941.92 490.593,1944.1 494.868,1944.1 494.868,1938.81 499.143,1938.81 499.143,1945.04 503.419,1945.04 503.419,1943.17 
  507.694,1943.17 507.694,1944.1 511.969,1944.1 511.969,1942.24 516.244,1942.24 516.244,1946.28 520.519,1946.28 520.519,1944.73 524.795,1944.73 
  529.07,1944.73 529.07,1947.84 533.345,1947.84 533.345,1945.04 537.62,1945.04 537.62,1946.28 541.895,1946.28 541.895,1945.97 546.171,1945.97 546.171,1950.02 
  550.446,1950.02 550.446,1947.22 554.721,1947.22 554.721,1947.53 558.996,1947.53 558.996,1949.08 563.271,1949.08 563.271,1948.77 567.546,1948.77 567.546,1949.08 
  571.822,1949.08 571.822,1953.13 576.097,1953.13 576.097,1945.35 580.372,1945.35 580.372,1950.02 584.647,1950.02 588.922,1950.02 588.922,1947.53 
  593.198,1947.53 593.198,1953.75 597.473,1953.75 597.473,1955.93 601.748,1955.93 601.748,1953.44 606.023,1953.44 606.023,1952.82 610.298,1952.82 610.298,1951.57 
  614.574,1951.57 614.574,1956.55 618.849,1956.55 618.849,1953.44 623.124,1953.44 623.124,1957.18 627.399,1957.18 627.399,1954.06 631.674,1954.06 631.674,1955.93 
  635.949,1955.93 635.949,1953.44 640.225,1953.44 640.225,1959.98 644.5,1959.98 644.5,1963.09 648.775,1963.09 648.775,1957.49 653.05,1957.49 653.05,1957.18 
  657.325,1957.18 657.325,1959.82 661.601,1959.82 661.601,1955.62 665.876,1955.62 665.876,1960.6 670.151,1960.6 670.151,1958.27 674.426,1958.27 674.426,1958.73 
  678.701,1958.73 678.701,1955.93 682.976,1955.93 682.976,1959.04 687.252,1959.04 687.252,1957.8 691.527,1957.8 691.527,1959.67 695.802,1959.67 695.802,1960.91 
  700.077,1960.91 700.077,1956.55 704.352,1956.55 704.352,1961.53 708.628,1961.53 708.628,1962.47 712.903,1962.47 712.903,1958.42 717.178,1958.42 717.178,1959.04 
  721.453,1959.04 721.453,1956.55 725.728,1956.55 725.728,1960.91 730.004,1960.91 730.004,1963.71 734.279,1963.71 734.279,1959.36 738.554,1959.36 738.554,1963.09 
  742.829,1963.09 742.829,1965.58 747.104,1965.58 751.379,1965.58 751.379,1963.87 755.655,1963.87 755.655,1961.69 759.93,1961.69 759.93,1966.51 
  764.205,1966.51 764.205,1962.16 768.48,1962.16 768.48,1969.94 772.755,1969.94 772.755,1965.89 777.031,1965.89 777.031,1961.85 781.306,1961.85 781.306,1968.69 
  785.581,1968.69 785.581,1967.76 789.856,1967.76 789.856,1970.25 794.131,1970.25 794.131,1963.09 798.406,1963.09 798.406,1966.36 802.682,1966.36 802.682,1961.22 
  806.957,1961.22 806.957,1971.03 811.232,1971.03 811.232,1968.69 815.507,1968.69 815.507,1965.89 819.782,1965.89 819.782,1959.98 824.058,1959.98 824.058,1965.58 
  828.333,1965.58 828.333,1964.34 832.608,1964.34 832.608,1961.07 836.883,1961.07 836.883,1963.25 841.158,1963.25 841.158,1963.87 845.434,1963.87 845.434,1960.91 
  849.709,1960.91 849.709,1964.65 853.984,1964.65 853.984,1966.2 858.259,1966.2 858.259,1965.89 862.534,1965.89 862.534,1968.38 866.809,1968.38 866.809,1973.67 
  871.085,1973.67 871.085,1969.78 875.36,1969.78 875.36,1966.36 879.635,1966.36 879.635,1969.63 883.91,1969.63 883.91,1971.81 888.185,1971.81 888.185,1962.31 
  892.461,1962.31 892.461,1966.51 896.736,1966.51 896.736,1963.71 901.011,1963.71 901.011,1968.07 905.286,1968.07 905.286,1966.67 909.561,1966.67 909.561,1963.4 
  913.836,1963.4 913.836,1969.01 918.112,1969.01 918.112,1969.32 922.387,1969.32 922.387,1969.01 926.662,1969.01 926.662,1966.51 930.937,1966.51 930.937,1969.63 
  935.212,1969.63 935.212,1973.05 939.488,1973.05 939.488,1967.6 943.763,1967.6 943.763,1971.96 948.038,1971.96 948.038,1969.16 952.313,1969.16 952.313,1969.63 
  956.588,1969.63 956.588,1969.94 960.864,1969.94 960.864,1962.78 965.139,1962.78 965.139,1973.05 969.414,1973.05 969.414,1964.96 973.689,1964.96 973.689,1968.07 
  977.964,1968.07 977.964,1972.58 982.239,1972.58 982.239,1969.78 986.515,1969.78 986.515,1972.43 990.79,1972.43 990.79,1971.5 995.065,1971.5 995.065,1968.85 
  999.34,1968.85 999.34,1967.45 1003.62,1967.45 1003.62,1974.3 1007.89,1974.3 1012.17,1974.3 1012.17,1973.52 1016.44,1973.52 1016.44,1970.87 
  1020.72,1970.87 1020.72,1975.85 1024.99,1975.85 1024.99,1967.92 1029.27,1967.92 1029.27,1973.05 1033.54,1973.05 1033.54,1979.28 1037.82,1979.28 1037.82,1978.03 
  1042.09,1978.03 1042.09,1976.94 1046.37,1976.94 1046.37,1971.5 1050.64,1971.5 1050.64,1973.52 1054.92,1973.52 1054.92,1973.05 1059.19,1973.05 1059.19,1969.01 
  1063.47,1969.01 1063.47,1972.9 1067.74,1972.9 1067.74,1973.21 1072.02,1973.21 1072.02,1986.12 1076.29,1986.12 1076.29,1978.34 1080.57,1978.34 1080.57,1977.25 
  1084.84,1977.25 1084.84,1978.81 1089.12,1978.81 1089.12,1979.12 1093.39,1979.12 1093.39,1976.63 1097.67,1976.63 1097.67,1971.34 1101.94,1971.34 1101.94,1974.61 
  1106.22,1974.61 1106.22,1981.77 1110.5,1981.77 1110.5,1984.1 1114.77,1984.1 1114.77,1983.48 1119.05,1983.48 1119.05,1979.74 1123.32,1979.74 1123.32,1978.19 
  1127.6,1978.19 1127.6,1981.46 1131.87,1981.46 1131.87,1983.95 1136.15,1983.95 1136.15,1979.28 1140.42,1979.28 1140.42,1978.65 1144.7,1978.65 1144.7,1987.06 
  1148.97,1987.06 1148.97,1982.7 1153.25,1982.7 1153.25,1976.63 1157.52,1976.63 1157.52,1974.3 1161.8,1974.3 1161.8,1985.35 1166.07,1985.35 1166.07,1977.56 
  1170.35,1977.56 1170.35,1985.66 1174.62,1985.66 1174.62,1976.01 1178.9,1976.01 1178.9,1980.37 1183.17,1980.37 1183.17,1979.74 1187.45,1979.74 1187.45,1987.53 
  1191.72,1987.53 1191.72,1987.06 1196,1987.06 1196,1984.26 1200.27,1984.26 1200.27,1984.57 1204.55,1984.57 1204.55,1979.12 1208.82,1979.12 1208.82,1980.37 
  1213.1,1980.37 1213.1,1984.41 1217.37,1984.41 1217.37,1979.9 1221.65,1979.9 1221.65,1979.12 1225.93,1979.12 1225.93,1989.24 1230.2,1989.24 1230.2,1984.72 
  1234.48,1984.72 1234.48,1986.9 1238.75,1986.9 1238.75,1984.57 1243.03,1984.57 1243.03,1974.76 1247.3,1974.76 1247.3,1990.33 1251.58,1990.33 1251.58,1989.08 
  1255.85,1989.08 1255.85,1992.35 1260.13,1992.35 1260.13,1985.5 1264.4,1985.5 1264.4,1994.22 1268.68,1994.22 1268.68,1991.42 1272.95,1991.42 1272.95,1992.04 
  1277.23,1992.04 1277.23,1999.04 1281.5,1999.04 1281.5,1990.17 1285.78,1990.17 1285.78,1999.82 1290.05,1999.82 1290.05,1994.84 1294.33,1994.84 1294.33,1997.95 
  1298.6,1997.95 1298.6,1988.46 1302.88,1988.46 1302.88,1989.86 1307.15,1989.86 1307.15,1995 1311.43,1995 1311.43,1995.15 1315.7,1995.15 1315.7,1994.53 
  1319.98,1994.53 1319.98,1994.68 1324.25,1994.68 1324.25,2002.78 1328.53,2002.78 1328.53,2006.2 1332.8,2006.2 1332.8,2003.24 1337.08,2003.24 1337.08,1998.89 
  1341.36,1998.89 1341.36,1994.68 1345.63,1994.68 1345.63,1996.55 1349.91,1996.55 1349.91,2001.07 1354.18,2001.07 1354.18,2000.91 1358.46,2000.91 1358.46,2002.62 
  1362.73,2002.62 1362.73,2011.8 1367.01,2011.8 1367.01,2006.98 1371.28,2006.98 1371.28,2002.93 1375.56,2002.93 1375.56,2008.22 1379.83,2008.22 1379.83,2010.4 
  1384.11,2010.4 1384.11,2012.43 1388.38,2012.43 1388.38,2016.47 1392.66,2016.47 1392.66,2023.94 1396.93,2023.94 1396.93,2027.21 1401.21,2027.21 1401.21,2031.73 
  1405.48,2031.73 1405.48,2024.1 1409.76,2024.1 1409.76,2025.81 1414.03,2025.81 1414.03,2019.59 1418.31,2019.59 1418.31,2027.83 1422.58,2027.83 1422.58,2031.73 
  1426.86,2031.73 1426.86,2033.75 1431.13,2033.75 1431.13,2040.91 1435.41,2040.91 1435.41,2043.4 1439.68,2043.4 1439.68,2047.29 1443.96,2047.29 
  1448.23,2047.29 1448.23,2049.93 1452.51,2049.93 1452.51,2056.16 1456.79,2056.16 1456.79,2065.65 1461.06,2065.65 1461.06,2063.32 1465.34,2063.32 1465.34,2071.41 
  1469.61,2071.41 1469.61,2072.5 1473.89,2072.5 1473.89,2072.35 1478.16,2072.35 1478.16,2084.49 1482.44,2084.49 1482.44,2089 1486.71,2089 1486.71,2091.64 
  1490.99,2091.64 1490.99,2095.69 1495.26,2095.69 1495.26,2094.29 1499.54,2094.29 1499.54,2102.54 1503.81,2102.54 1503.81,2106.59 1508.09,2106.59 1508.09,2114.06 
  1512.36,2114.06 1512.36,2134.44 1516.64,2134.44 1516.64,2126.51 1520.91,2126.51 1520.91,2140.51 1525.19,2140.51 1525.19,2142.07 1529.46,2142.07 1529.46,2146.12 
  1533.74,2146.12 1533.74,2152.19 1538.01,2152.19 1538.01,2155.92 1542.29,2155.92 1542.29,2158.26 1546.56,2158.26 1546.56,2166.82 1550.84,2166.82 1550.84,2179.73 
  1555.11,2179.73 1555.11,2178.18 1559.39,2178.18 1559.39,2198.41 1563.66,2198.41 1563.66,2197.16 1567.94,2197.16 1567.94,2203.39 1572.22,2203.39 1572.22,2211.02 
  1576.49,2211.02 1576.49,2220.51 1580.77,2220.51 1580.77,2221.91 1585.04,2221.91 1585.04,2226.27 1589.32,2226.27 1589.32,2242.76 1593.59,2242.76 1593.59,2245.57 
  1597.87,2245.57 1597.87,2239.03 1602.14,2239.03 1602.14,2248.21 1606.42,2248.21 1606.42,2262.53 1610.69,2262.53 1610.69,2272.65 1614.97,2272.65 1614.97,2284.63 
  1619.24,2284.63 1619.24,2283.7 1623.52,2283.7 1623.52,2289.14 1627.79,2289.14 1627.79,2287.9 1632.07,2287.9 1632.07,2309.69 1636.34,2309.69 1636.34,2315.45 
  1640.62,2315.45 1640.62,2311.09 1644.89,2311.09 1644.89,2315.6 1649.17,2315.6 1649.17,2336.61 1653.44,2336.61 1653.44,2338.95 1657.72,2338.95 1657.72,2348.28 
  1661.99,2348.28 1661.99,2349.84 1666.27,2349.84 1666.27,2361.98 1670.54,2361.98 1670.54,2367.89 1674.82,2367.89 1674.82,2373.96 1679.09,2373.96 1679.09,2381.59 
  1683.37,2381.59 1683.37,2384.7 1687.65,2384.7 1687.65,2393.89 1691.92,2393.89 1691.92,2395.6 1696.2,2395.6 1696.2,2399.64 1700.47,2399.64 1700.47,2405.56 
  1704.75,2405.56 1704.75,2410.23 1709.02,2410.23 1709.02,2414.9 1713.3,2414.9 1713.3,2420.5 1717.57,2420.5 1717.57,2421.28 1721.85,2421.28 1721.85,2423.92 
  1726.12,2423.92 1726.12,2427.81 1730.4,2427.81 1730.4,2428.59 1734.67,2428.59 1734.67,2440.42 1738.95,2440.42 1738.95,2445.4 1743.22,2445.4 1743.22,2452.09 
  1747.5,2452.09 1747.5,2452.25 1751.77,2452.25 1751.77,2456.76 1756.05,2456.76 1756.05,2462.52 1760.32,2462.52 1760.32,2466.88 1764.6,2466.88 1764.6,2470.61 
  1768.87,2470.61 1768.87,2472.79 1773.15,2472.79 1773.15,2473.41 1777.42,2473.41 1777.42,2475.9 1781.7,2475.9 1781.7,2482.91 1785.97,2482.91 1785.97,2484.93 
  1790.25,2484.93 1790.25,2483.22 1794.52,2483.22 1794.52,2488.67 1798.8,2488.67 1798.8,2494.74 1803.08,2494.74 1803.08,2499.72 1807.35,2499.72 1807.35,2503.3 
  1811.63,2503.3 1811.63,2508.12 1815.9,2508.12 1815.9,2506.56 1820.18,2506.56 1820.18,2508.12 1824.45,2508.12 1824.45,2509.52 1828.73,2509.52 1828.73,2514.5 
  1833,2514.5 1833,2514.97 1837.28,2514.97 1837.28,2514.35 1841.55,2514.35 1841.55,2518.24 1845.83,2518.24 1845.83,2519.33 1850.1,2519.33 1850.1,2525.08 
  1854.38,2525.08 1854.38,2524.77 1858.65,2524.77 1858.65,2530.06 1862.93,2530.06 1862.93,2527.89 1867.2,2527.89 1867.2,2526.02 1871.48,2526.02 1871.48,2527.42 
  1875.75,2527.42 1875.75,2529.75 1880.03,2529.75 1880.03,2531.15 1884.3,2531.15 1884.3,2534.58 1888.58,2534.58 1888.58,2537.38 1892.85,2537.38 1892.85,2538.16 
  1897.13,2538.16 1897.13,2540.96 1901.4,2540.96 1901.4,2542.05 1905.68,2542.05 1905.68,2540.03 1909.95,2540.03 1909.95,2542.52 1914.23,2542.52 1914.23,2543.92 
  1918.51,2543.92 1918.51,2543.29 1922.78,2543.29 1922.78,2546.41 1927.06,2546.41 1931.33,2546.41 1931.33,2547.65 1935.61,2547.65 1935.61,2547.18 
  1939.88,2547.18 1939.88,2548.27 1944.16,2548.27 1944.16,2549.52 1948.43,2549.52 1948.43,2548.59 1952.71,2548.59 1956.98,2548.59 1956.98,2548.27 
  1961.26,2548.27 1961.26,2547.96 1965.53,2547.96 1965.53,2549.83 1969.81,2549.83 1969.81,2549.67 1974.08,2549.67 1974.08,2550.14 1978.36,2550.14 1978.36,2550.45 
  1982.63,2550.45 1982.63,2550.3 1986.91,2550.3 1986.91,2550.14 1991.18,2550.14 1995.46,2550.14 1999.73,2550.14 1999.73,2551.08 
  2004.01,2551.08 2004.01,2551.7 2008.28,2551.7 2008.28,2552.32 2012.56,2552.32 2012.56,2551.08 2016.83,2551.08 2021.11,2551.08 2021.11,2550.76 
  2025.38,2550.76 2025.38,2551.39 2029.66,2551.39 2029.66,2552.01 2033.94,2552.01 2033.94,2552.32 2038.21,2552.32 2038.21,2551.7 2042.49,2551.7 
  2046.76,2551.7 2046.76,2551.39 2051.04,2551.39 2055.31,2551.39 2055.31,2551.08 2059.59,2551.08 2063.86,2551.08 2063.86,2550.76 
  2068.14,2550.76 2068.14,2552.01 2072.41,2552.01 2072.41,2551.7 2076.69,2551.7 2076.69,2552.16 2080.96,2552.16 2080.96,2552.32 2085.24,2552.32 2085.24,2552.63 
  2089.51,2552.63 2089.51,2552.32 2093.79,2552.32 2093.79,2552.63 2098.06,2552.63 2098.06,2552.94 2102.34,2552.94 2102.34,2552.32 2106.61,2552.32 2106.61,2552.79 
  2110.89,2552.79 2110.89,2552.94 2115.16,2552.94 2119.44,2552.94 2123.71,2552.94 2123.71,2553.25 2127.99,2553.25 2127.99,2552.63 
  2132.26,2552.63 2132.26,2552.94 2136.54,2552.94 2136.54,2553.25 2140.81,2553.25 2140.81,2553.41 2145.09,2553.41 2145.09,2552.94 2149.37,2552.94 
  2153.64,2552.94 2153.64,2553.88 2157.92,2553.88 2162.19,2553.88 2162.19,2554.19 2166.47,2554.19 2166.47,2553.88 2170.74,2553.88 
  2175.02,2553.88 2175.02,2554.19 2179.29,2554.19 2183.57,2554.19 2183.57,2554.5 2187.84,2554.5 2187.84,2553.88 2192.12,2553.88 
  2196.39,2553.88 2200.67,2553.88 2200.67,2554.19 2204.94,2554.19 2209.22,2554.19 2209.22,2553.88 2213.49,2553.88 2213.49,2554.19 
  2217.77,2554.19 2217.77,2553.88 2222.04,2553.88 2222.04,2554.19 2226.32,2554.19 2226.32,2554.5 2230.59,2554.5 2234.87,2554.5 
  2239.14,2554.5 2243.42,2554.5 2247.69,2554.5 2251.97,2554.5 2251.97,2554.81 2256.24,2554.81 2256.24,2554.5 
  2260.52,2554.5 2264.8,2554.5 2269.07,2554.5 2273.35,2554.5 2277.62,2554.5 2277.62,2555.12 
  2281.9,2555.12 2281.9,2554.81 2286.17,2554.81 2286.17,2554.5 2290.45,2554.5 2290.45,2554.81 2294.72,2554.81 2294.72,2554.5 2299,2554.5 
  2303.27,2554.5 2303.27,2554.81 2307.55,2554.81 2311.82,2554.81 2311.82,2554.5 2316.1,2554.5 2320.37,2554.5 
  2324.65,2554.5 2324.65,2554.81 2328.92,2554.81 2328.92,2554.5 2333.2,2554.5 2333.2,2554.81 2337.47,2554.81 2341.75,2554.81 2341.75,2554.5 
  2346.02,2554.5 2346.02,2554.81 2350.3,2554.81 2354.57,2554.81 2358.85,2554.81 2363.12,2554.81 
  2367.4,2554.81 2371.67,2554.81 2371.67,2555.12 2375.95,2555.12 2380.23,2555.12 2384.5,2555.12 
  2388.78,2555.12 2393.05,2555.12 2397.33,2555.12 2401.6,2555.12 2405.88,2555.12 
  2410.15,2555.12 2414.43,2555.12 2418.7,2555.12 2422.98,2555.12 2427.25,2555.12 
  2431.53,2555.12 2435.8,2555.12 2440.08,2555.12 2444.35,2555.12 2448.63,2555.12 
  "/>
<path clip-path="url(#clip5600)" d="
M1948.88 2106.37 L2501.75 2106.37 L2501.75 1985.41 L1948.88 1985.41  Z
  " fill="#ffffff" fill-rule="evenodd" fill-opacity="1"/>
<polyline clip-path="url(#clip5600)" style="stroke:#000000; stroke-width:4; stroke-opacity:1; fill:none" points="
  1948.88,2106.37 2501.75,2106.37 2501.75,1985.41 1948.88,1985.41 1948.88,2106.37 
  "/>
<polyline clip-path="url(#clip5600)" style="stroke:#000000; stroke-width:4; stroke-opacity:1; fill:none" points="
  1976.88,2045.89 2144.88,2045.89 
  "/>
<g clip-path="url(#clip5600)">
<text style="fill:#000000; fill-opacity:1; font-family:Arial,Helvetica Neue,Helvetica,sans-serif; font-size:48px; text-anchor:start;" transform="rotate(0, 2172.88, 2063.39)" x="2172.88" y="2063.39">In Minus Out</text>
</g>
</svg>
